<?xml version="1.0" encoding="UTF-8"?>
<svg width="24px" height="24px" viewBox="0 0 24 24" version="1.1" xmlns="http://www.w3.org/2000/svg" xmlns:xlink="http://www.w3.org/1999/xlink">
    <title>call</title>
    <g id="call" stroke="none" stroke-width="1" fill="none" fill-rule="evenodd">
        <g id="Group" transform="translate(4, 4)" fill="#FFFFFF" fill-rule="nonzero">
            <path d="M15.4900812,11.5360502 L13.5311854,9.5799373 C13.1795887,9.22884013 12.777764,9.02821317 12.3257111,9.02821317 C11.8736582,9.02821317 11.4718334,9.22884013 11.0700087,9.5799373 L9.91476244,10.7335423 C9.81430624,10.6833856 9.71385005,10.6332288 9.61339385,10.5830721 C9.46270956,10.5329154 9.36225337,10.4326019 9.26179717,10.3824451 C8.20700713,9.73040752 7.20244519,8.82758621 6.29833944,7.67398119 C5.84628657,7.12225705 5.54491798,6.62068966 5.3440056,6.11912226 C5.64537418,5.86833856 5.89651466,5.56739812 6.19788325,5.31661442 C6.29833944,5.21630094 6.39879564,5.11598746 6.49925183,5.01567398 C7.25267329,4.26332288 7.25267329,3.26018809 6.49925183,2.50783699 L5.49468989,1.50470219 C5.39423369,1.40438871 5.2435494,1.2539185 5.14309321,1.15360502 C4.94218082,0.952978056 4.74126843,0.752351097 4.49012794,0.551724138 C4.13853126,0.200626959 3.73670649,0 3.28465361,0 C2.83260074,0 2.43077596,0.200626959 2.07917928,0.551724138 L2.07917928,0.551724138 L0.823476853,1.75548589 C0.371423979,2.20689655 0.120283493,2.75862069 0.0198272985,3.41065831 C-0.0806288957,4.46394984 0.220739687,5.4169279 0.471880173,6.06896552 C1.07461734,7.62382445 1.92849499,9.07836991 3.23442552,10.6332288 C4.79149653,12.4890282 6.70016422,13.9937304 8.8599724,15.0470219 C9.66362195,15.4482759 10.7686401,15.8996865 12.0243425,16 C12.1247987,16 12.1750268,16 12.275483,16 C13.1293607,16 13.7823259,15.6990596 14.334835,15.0971787 C14.334835,15.0971787 14.334835,15.0971787 14.334835,15.0971787 C14.5357474,14.846395 14.7366598,14.645768 14.9878002,14.4451411 C15.1384845,14.2946708 15.2891688,14.1442006 15.4398531,13.9937304 C15.7914498,13.6426332 15.9923622,13.1912226 15.9923622,12.7398119 C16.0425903,12.338558 15.8416779,11.8871473 15.4900812,11.5360502 Z M14.7868879,13.3416928 C14.6362036,13.492163 14.4855193,13.6426332 14.334835,13.7931034 C14.0836945,13.9937304 13.8827821,14.2445141 13.6316416,14.4952978 C13.2800449,14.8965517 12.8279921,15.0470219 12.275483,15.0470219 C12.2252549,15.0470219 12.1750268,15.0470219 12.1247987,15.0470219 C11.0700087,14.9968652 10.0654467,14.5454545 9.31202527,14.1943574 C7.25267329,13.1912226 5.49468989,11.7868339 3.98784697,10.031348 C2.78237264,8.57680251 1.92849499,7.17241379 1.37598592,5.71786834 C1.07461734,4.86520376 0.974161144,4.1630094 1.02438924,3.51097179 C1.07461734,3.10971787 1.22530163,2.75862069 1.52667021,2.45768025 L2.73214454,1.2539185 C2.93305693,1.10344828 3.08374122,1.0031348 3.28465361,1.0031348 C3.5357941,1.0031348 3.68647839,1.15360502 3.78693458,1.2539185 L3.78693458,1.2539185 C4.03807507,1.45454545 4.28921556,1.65517241 4.49012794,1.85579937 C4.59058414,2.00626959 4.69104033,2.10658307 4.84172462,2.20689655 L5.84628657,3.21003135 C6.24811134,3.61128527 6.24811134,3.96238245 5.84628657,4.31347962 C5.74583037,4.4137931 5.64537418,4.51410658 5.54491798,4.61442006 C5.2435494,4.9153605 4.94218082,5.21630094 4.64081224,5.46708464 C4.64081224,5.46708464 4.64081224,5.46708464 4.64081224,5.46708464 C4.33944365,5.76802508 4.38967175,6.06896552 4.43989985,6.26959248 L4.43989985,6.31974922 C4.69104033,6.92163009 5.04263701,7.52351097 5.59514608,8.22570533 L5.59514608,8.22570533 C6.59970802,9.42946708 7.65449806,10.3824451 8.8097443,11.1347962 C8.96042859,11.2351097 9.11111288,11.2852665 9.26179717,11.3855799 C9.41248146,11.4357367 9.51293766,11.5360502 9.61339385,11.5862069 C9.61339385,11.5862069 9.66362195,11.5862069 9.66362195,11.6363636 C9.76407814,11.6865204 9.91476244,11.7366771 10.0152186,11.7366771 C10.3165872,11.7366771 10.5174996,11.5360502 10.5677277,11.4858934 L11.8234301,10.2319749 C11.9238863,10.1316614 12.1247987,9.98119122 12.3759392,9.98119122 C12.5768516,9.98119122 12.777764,10.1316614 12.8782202,10.2319749 L14.8873441,12.2382445 C15.1887126,12.5893417 15.1887126,12.9905956 14.7868879,13.3416928 Z" id="Shape"></path>
        </g>
    </g>
</svg>