<?xml version="1.0" encoding="UTF-8"?>
<svg width="50px" height="50px" viewBox="0 0 50 50" version="1.1" xmlns="http://www.w3.org/2000/svg" xmlns:xlink="http://www.w3.org/1999/xlink">
    <title>Artboard</title>
    <g id="Artboard" stroke="none" stroke-width="1" fill="none" fill-rule="evenodd">
        <g id="Group-15" transform="translate(10, 10)" fill="#25D366" fill-rule="nonzero">
            <path d="M29.9896777,14.3245215 C29.848422,10.4931268 28.2194409,6.86399177 25.4426563,4.19479543 C22.6658716,1.5255991 18.956093,0.0227281605 15.0879061,4.08710353e-06 L15.0148567,4.08710353e-06 C12.4098996,-0.00190980563 9.84943796,0.668380274 7.58517948,1.94491852 C5.32097146,3.22145677 3.43110116,5.06025424 2.10153175,7.2803812 C0.771962341,9.50051815 0.0485111101,12.0255247 0.00235580543,14.6068211 C-0.0437984903,17.1882176 0.588935294,19.7369141 1.83830173,22.002411 L0.511668418,29.8703002 C0.509509224,29.8864002 0.510841063,29.9028001 0.515583219,29.9184001 C0.520315286,29.9340001 0.528356772,29.9484001 0.539152744,29.9607001 C0.549948717,29.973 0.563257023,29.9828 0.57818977,29.9896 C0.593122517,29.9964 0.609346745,30.0000041 0.625772766,30.0000041 L0.648595654,30.0000041 L8.50035508,28.2690024 C10.5290797,29.2343011 12.7507294,29.7352004 15.0011348,29.7346004 C15.1442066,29.7346004 15.2871776,29.7346004 15.4301485,29.7346004 C17.4097465,29.6786004 19.3585709,29.2346011 21.1640207,28.4282022 C22.9695714,27.6218033 24.5960301,26.4690048 25.9496634,25.0363068 C27.3032967,23.6036088 28.3572661,21.9194111 29.0506299,20.0808136 C29.7439937,18.2423161 30.0631307,16.2859188 29.9896777,14.3245215 L29.9896777,14.3245215 Z M15.3555857,27.1486039 C15.2369309,27.1486039 15.1182761,27.1486039 15.0011348,27.1486039 C13.0122543,27.1511039 11.0518268,26.6794046 9.28538371,25.7735058 L8.88374326,25.5654061 L3.55896786,26.8124044 L4.54176458,21.4731117 L4.31356597,21.0901122 C3.22362679,19.2484148 2.63654786,17.1570176 2.61016331,15.0219206 C2.58377876,12.8869235 3.11898657,10.7818264 4.16307819,8.91417895 C5.20717989,7.04649152 6.7241351,5.48058367 8.5645558,4.37067519 C10.4049765,3.26075671 12.5053481,2.64513756 14.6588923,2.58444764 C14.7785561,2.58444764 14.8987244,2.58444764 15.0193971,2.58444764 C18.270801,2.59399763 21.3882137,3.86907588 23.7000652,6.13497277 C26.0119168,8.40085966 27.3331622,11.4762254 27.3790703,14.698321 C27.4248775,17.9205166 26.191816,21.0315123 23.9454466,23.3612091 C21.6989762,25.6909059 18.6190972,27.052704 15.3693077,27.1532039 L15.3555857,27.1486039 Z" id="Shape"></path>
            <path d="M9.78557019,7.69006063 C9.60022252,7.69365063 9.4174578,7.73406057 9.24812247,7.80891047 C9.07878714,7.88376037 8.92632177,7.99153022 8.79976674,8.12583003 C8.44223844,8.48921954 7.44270292,9.36376833 7.38488897,11.2003258 C7.32708511,13.0368233 8.62176436,14.8538208 8.80280374,15.1086204 C8.98385321,15.3634201 11.2780377,19.3306146 15.0571326,20.9394124 C17.2783787,21.8879111 18.2520341,22.0507109 18.8833463,22.0507109 C19.1435595,22.0507109 19.339804,22.023611 19.5451293,22.011511 C20.2373832,21.969311 21.7998732,21.1762121 22.1406022,20.3137133 C22.481432,19.4512145 22.5042347,18.6973155 22.4144364,18.5465157 C22.3247391,18.3957159 22.0782478,18.2871161 21.707048,18.0941163 C21.3358482,17.9011166 19.5147593,16.9361179 19.172416,16.8004181 C19.0454877,16.7418182 18.9088732,16.7066183 18.7692318,16.6964183 C18.6783237,16.7011183 18.589938,16.7277182 18.5117428,16.7740182 C18.4335477,16.8202181 18.3678638,16.884718 18.3204423,16.9617179 C18.016238,17.3372174 17.3179303,18.1529163 17.0835467,18.3882159 C17.0323919,18.4466159 16.9693313,18.4937158 16.8986026,18.5265158 C16.8278738,18.5592157 16.7508895,18.5768157 16.6727952,18.5782157 C16.5289162,18.5719157 16.388165,18.5343157 16.2605303,18.4681158 C15.1574241,18.0038165 14.1516834,17.3389174 13.2953711,16.5079185 C12.4952584,15.7263196 11.8164238,14.8315208 11.2810646,13.8526222 C11.0742259,13.4726227 11.2810646,13.276623 11.4697419,13.0987232 C11.6584192,12.9207235 11.8607175,12.6750238 12.0554486,12.4623241 C12.2152694,12.2807243 12.3484533,12.0777246 12.4510655,11.8592249 C12.5041373,11.757825 12.5309759,11.6449252 12.5290589,11.5307254 C12.5272427,11.4164255 12.4967718,11.3045257 12.4403704,11.2048258 C12.3506731,11.0148261 11.6797084,9.14663863 11.3648091,8.39723966 C11.1092371,7.75641054 10.804932,7.73530057 10.5386649,7.7157006 C10.3196177,7.70062062 10.0685861,7.69308063 9.81755452,7.68554064 L9.78557019,7.68554064" id="Path"></path>
        </g>
    </g>
</svg>