<?xml version="1.0" encoding="UTF-8"?>
<svg width="50px" height="50px" viewBox="0 0 50 50" version="1.1" xmlns="http://www.w3.org/2000/svg" xmlns:xlink="http://www.w3.org/1999/xlink">
    <title>mission 1</title>
    <g id="mission-1" stroke="none" stroke-width="1" fill="none" fill-rule="evenodd">
        <g id="Group" transform="translate(10, 10)" fill="#FFFFFF" fill-rule="nonzero">
            <path d="M27.8516667,18.4443333 C28.164,17.276 30,16.267 30,15 C30,13.733 28.164,12.724 27.852,11.5556667 C27.529,10.3466667 28.6046667,8.557 27.9923333,7.49833333 C27.371,6.42466667 25.2773333,6.46566667 24.406,5.594 C23.5346667,4.72266667 23.5756667,2.629 22.5016667,2.00766667 C21.443,1.39533333 19.6533333,2.471 18.4443333,2.148 C17.276,1.836 16.267,0 15,0 C13.733,0 12.724,1.836 11.5556667,2.148 C10.3466667,2.471 8.557,1.39533333 7.49833333,2.00766667 C6.42466667,2.629 6.46566667,4.72266667 5.594,5.594 C4.72266667,6.46533333 2.629,6.42433333 2.00766667,7.49833333 C1.39533333,8.557 2.471,10.3466667 2.148,11.5556667 C1.836,12.724 0,13.733 0,15 C0,16.267 1.836,17.276 2.148,18.4443333 C2.471,19.6533333 1.39533333,21.443 2.00766667,22.5016667 C2.629,23.5753333 4.72266667,23.5343333 5.594,24.406 C6.46533333,25.2773333 6.42433333,27.371 7.49833333,27.9923333 C8.557,28.6046667 10.3466667,27.529 11.5556667,27.852 C12.724,28.164 13.733,30 15,30 C16.267,30 17.276,28.164 18.4443333,27.852 C19.6533333,27.529 21.443,28.6046667 22.5016667,27.9923333 C23.5753333,27.371 23.5343333,25.2773333 24.406,24.406 C25.2773333,23.5346667 27.371,23.5756667 27.9923333,22.5016667 C28.6046667,21.443 27.5286667,19.6533333 27.8516667,18.4443333 Z M13.0613333,20.1036667 L8.80266667,15.8183333 L10.871,13.737 L13.1216667,16.0006667 L19.1893333,9.89633333 L21.1973333,11.9166667 L13.0613333,20.1036667 Z" id="Shape"></path>
        </g>
    </g>
</svg>