<?xml version="1.0" encoding="UTF-8"?>
<svg width="50px" height="50px" viewBox="0 0 50 50" version="1.1" xmlns="http://www.w3.org/2000/svg" xmlns:xlink="http://www.w3.org/1999/xlink">
    <title>mission 2</title>
    <g id="mission-2" stroke="none" stroke-width="1" fill="none" fill-rule="evenodd">
        <g id="Group-14" transform="translate(9, 10)" fill="#FFFFFF" fill-rule="nonzero">
            <g id="Group">
                <path d="M1.14966142,22.2930362 C0.35098947,21.4892055 -0.0652475183,20.3742741 0.00833684682,19.2358871 L0.583741478,11.5449461 C0.640489193,10.6308294 1.41758792,9.93642021 2.31944006,9.99393965 C3.22129221,10.0514591 3.90638471,10.8391258 3.849637,11.7532424 L3.44811838,17.8419041 C3.41755744,18.377733 3.61427168,18.9012759 3.98874581,19.2807509 L6.57806665,21.9052846 C6.75941648,22.0967554 7.05050937,22.1278847 7.26728758,21.9789894 C7.39179304,21.8882619 7.47060996,21.7466049 7.48278982,21.5916689 C7.49496968,21.4367329 7.43927872,21.2842123 7.33051886,21.1746452 L5.07948536,18.8929993 C4.48383983,18.3089628 4.41839659,17.3637146 4.92773029,16.7010811 C5.21339643,16.3496452 5.63309315,16.1380072 6.08194801,16.1190506 C6.53080286,16.100094 6.96641455,16.2756095 7.27993384,16.6017398 L11.9558869,21.3476913 C13.4100532,22.8272359 14.2292467,24.8287897 14.2353744,26.9172145 L14.2543438,30 L6.62232854,30 L6.62232854,27.843332 L1.14966142,22.2930362 Z M28.6742368,10.0003488 C27.7745762,10.0570237 27.0899986,10.8412311 27.1440399,11.7532424 L27.5455585,17.8419041 C27.5761194,18.377733 27.3794052,18.9012759 27.0049311,19.2807509 L24.4156102,21.9148982 C24.2342604,22.1063691 23.9431675,22.1374984 23.7263893,21.9886031 C23.6018838,21.8978756 23.5230669,21.7562185 23.5108871,21.6012825 C23.4987072,21.4463466 23.5543982,21.293826 23.663158,21.1842588 L25.9141915,18.902613 C26.509837,18.3185765 26.5752803,17.3733282 26.0659466,16.7106948 C25.7817269,16.3600716 25.3641551,16.1480505 24.9169183,16.1272785 C24.4696815,16.1065065 24.0347298,16.2789319 23.7200662,16.6017398 L19.0441131,21.3476913 C17.5902373,22.8274323 16.7710957,24.8288594 16.7646256,26.9172145 L16.7456562,30 L24.3776715,30 L24.3776715,27.843332 L29.8503386,22.2930362 C30.6490105,21.4892055 31.0652475,20.3742741 30.9916632,19.2358871 L30.4162585,11.5449461 C30.387865,11.1057655 30.1882335,10.696085 29.8614147,10.4063048 C29.534596,10.1165246 29.1074521,9.97046257 28.6742368,10.0003488 Z M23.8528518,3.62007227 L23.8528518,4.0526877 C23.8528518,4.5269624 23.8528518,5.01405533 23.8718212,5.53639841 C23.9666681,10.5130782 24.0931307,16.4863757 15.8382873,19.3865014 C15.6120065,19.4661074 15.3658626,19.4661074 15.1395817,19.3865014 C6.88789991,16.4863757 7.01436247,10.5130782 7.10920939,5.53639841 C7.10920939,5.01725989 7.12817877,4.5269624 7.12817877,4.0526877 L7.12817877,3.62007227 C7.12817877,3.26610648 7.41127484,2.97916052 7.76049155,2.97916052 L8.18730268,2.97916052 C10.9663174,2.97916052 12.9897183,2.20686186 14.7443862,0.479604684 L15.0415732,0.184785278 C15.2878257,-0.0615950925 15.6837202,-0.0615950925 15.9299727,0.184785278 L16.2271597,0.479604684 C17.9818277,2.21006642 20.0052286,2.97916052 22.7842432,2.97916052 L23.2110544,2.97916052 C23.3803914,2.97658563 23.5436701,3.04297164 23.664311,3.16344612 C23.784952,3.28392061 23.8528709,3.44841304 23.8528518,3.62007227 L23.8528518,3.62007227 Z M19.2938767,7.53283852 L18.4560623,6.66760765 C18.2380104,6.44889592 17.8868847,6.44889592 17.6688328,6.66760765 L14.5293999,9.87216642 L13.3121978,8.63841129 C13.0921131,8.42476993 12.7450531,8.42476993 12.5249684,8.63841129 L11.6839924,9.49082392 C11.5795453,9.59660767 11.5208606,9.74013148 11.5208606,9.88979149 C11.5208606,10.0394515 11.5795453,10.1829753 11.6839924,10.2887591 L14.137366,12.7562693 C14.3554178,12.974981 14.7065435,12.974981 14.9245954,12.7562693 L19.2938767,8.33397821 C19.5117481,8.11258639 19.5117481,7.75423034 19.2938767,7.53283852 Z" id="Shape"></path>
            </g>
        </g>
    </g>
</svg>