<?xml version="1.0" encoding="UTF-8"?> <svg xmlns="http://www.w3.org/2000/svg" width="268" height="60" viewBox="0 0 268 60" fill="none"><g clip-path="url(#clip0_12_1175)"><path d="M54.0001 0V12H0.666748V0H54.0001Z" fill="#FF4F00"></path><path d="M54.0001 41.3333V53.3333H0.666748V41.3333H54.0001Z" fill="#FF4F00"></path><path d="M40.6668 20.6667V32.6667H0.666748V20.6667H40.6668Z" fill="#FF4F00"></path><path d="M69 26.6667L94 53.3333H77.3334L52.3334 26.6667L77.3334 0H94L69 26.6667Z" fill="#FF4F00"></path><path d="M107.333 0H118.673C122.856 0 125.601 1.89619 125.601 5.78508C125.601 8.13771 124.392 9.83747 122.268 10.7515V10.8174C125.144 11.4384 126.647 13.6605 126.647 16.8307C126.647 20.4902 124.098 23.3333 118.053 23.3333H107.333V0ZM111.419 9.77161H118.085C120.046 9.77161 121.516 8.62822 121.516 6.53674C121.516 4.18297 120.308 3.33366 118.085 3.33366H111.419V9.77161ZM111.419 20.0008H118.641C121.124 20.0008 122.562 18.661 122.562 16.3072C122.562 13.9875 121.124 12.7124 118.641 12.7124H111.419V20.0008Z" fill="white"></path><path d="M127.411 0H131.561L135.777 17.8435H135.842L140.548 0H144.731L149.306 17.8435H149.372L153.718 0H157.868L151.43 23.3333H147.28L142.607 5.491H142.541L137.77 23.3333H133.555L127.411 0Z" fill="white"></path><path d="M179 30H183.085V40.6209L193.477 30H198.51L189.196 39.314L199.163 53.3333H194.066L186.419 42.189L183.085 45.4897V53.3333H179V30Z" fill="white"></path><path d="M198.4 44.978C198.4 39.9143 201.496 36.2045 206.819 36.2045C212.141 36.2045 215.238 39.9143 215.238 44.978C215.238 50.1078 212.141 53.7851 206.819 53.7851C201.496 53.7851 198.4 50.1078 198.4 44.978ZM211.561 44.978C211.561 42.1077 210.11 39.1073 206.819 39.1073C203.528 39.1073 202.077 42.1077 202.077 44.978C202.077 47.882 203.528 50.8812 206.819 50.8812C210.11 50.8812 211.561 47.882 211.561 44.978Z" fill="white"></path><path d="M220.665 47.9783C220.891 50.1392 222.472 50.8812 224.439 50.8812C225.859 50.8812 228.246 50.5909 228.148 48.6878C228.052 46.7522 225.375 46.5269 222.697 45.9139C219.988 45.3333 217.343 44.3661 217.343 40.979C217.343 37.3331 221.278 36.2045 224.31 36.2045C227.729 36.2045 230.859 37.5909 231.278 41.3332H227.439C227.085 39.559 225.697 39.1073 224.052 39.1073C222.987 39.1073 221.02 39.3651 221.02 40.8176C221.02 42.6232 223.729 42.9135 226.439 43.4941C229.117 44.1072 231.826 45.0755 231.826 48.365C231.826 52.3337 227.826 53.7851 224.375 53.7851C220.149 53.7851 217.084 51.9134 216.988 47.9783H220.665Z" fill="white"></path><path d="M252.688 36.6667H256.171V39.1073L256.236 39.1723C257.365 37.3331 259.236 36.2045 261.43 36.2045C265.075 36.2045 267.333 38.1076 267.333 41.8812V53.3333H263.656V42.8496C263.559 40.2371 262.591 39.1073 260.398 39.1073C257.946 39.1073 256.365 41.0429 256.365 43.494V53.3333H252.688V36.6667Z" fill="white"></path><path d="M240.773 36.205C243.312 36.205 245.005 37.4322 245.917 38.9947V36.6672H249.666V53.3339H245.917V51.0064C244.956 52.5689 243.312 53.7846 240.773 53.7846C237.014 53.8334 233.449 50.4856 233.531 45.0005C233.465 39.483 236.851 36.1562 240.773 36.205ZM241.734 50.5181C243.98 50.5181 245.917 48.4673 245.917 45.0005C245.917 41.5337 243.98 39.483 241.734 39.483H241.441C239.195 39.483 237.372 41.6314 237.372 44.9843C237.372 48.3371 239.195 50.5181 241.441 50.5181H241.734Z" fill="white"></path><path d="M107.333 30H124.131V33.529H111.419V39.6399H123.183V42.9736H111.419V49.8032H124.359V53.3333H107.333V30Z" fill="white"></path><path d="M165.353 42.2366C165.062 40.1721 163.611 39.1073 161.546 39.1073C159.643 39.1073 156.965 40.1396 156.965 45.1719C156.965 47.9458 158.192 50.8812 161.385 50.8812C163.547 50.8812 164.998 49.4948 165.353 47.075H169.031C168.353 51.4304 165.675 53.7851 161.385 53.7851C156.16 53.7851 153.288 50.0753 153.288 45.1719C153.288 40.1396 156.031 36.2045 161.515 36.2045C165.385 36.2045 168.675 38.1401 169.031 42.2366H165.353Z" fill="white"></path><path d="M150.409 30H146.734V33.529H150.409V30Z" fill="white"></path><path d="M150.409 36.6667H146.734V53.3333H150.409V36.6667Z" fill="white"></path><path d="M127.331 36.6667H130.815V38.9146H130.879C131.911 36.979 133.879 36.2045 136.04 36.2045C141.298 36.2045 143.847 40.1721 143.847 45.0755C143.847 49.5912 141.557 53.7851 136.653 53.7851C134.524 53.7851 132.202 53.0107 131.073 51.1715H131.008V60H127.331V36.6667ZM135.556 39.1073C132.459 39.1073 130.879 41.4296 130.879 45.0105C130.879 48.365 132.589 50.8812 135.556 50.8812C138.912 50.8812 140.169 47.9133 140.169 45.0105C140.169 42.0113 138.589 39.1073 135.556 39.1073Z" fill="white"></path></g><defs><clipPath id="clip0_12_1175"><rect width="266.667" height="60" fill="white" transform="translate(0.666748)"></rect></clipPath></defs></svg> 