<svg width="496" height="496" viewBox="0 0 496 496" fill="none" xmlns="http://www.w3.org/2000/svg">
<g clip-path="url(#clip0_145_93)">
<path d="M402.522 432L384.002 376.432C377.53 357.032 361.018 342.712 340.89 339.048L287.426 329.32V325.176C296.73 319.776 304.826 312.552 311.274 304H327.426C340.658 304 351.426 293.232 351.426 280V184C351.426 126.656 304.77 80 247.426 80C190.082 80 143.426 126.656 143.426 184V240C143.426 255.424 154.394 268.328 168.938 271.336C173.426 294.328 187.794 313.784 207.426 325.176V329.32L153.954 339.048C133.834 342.712 117.314 357.032 110.85 376.432L107.65 386.04L80.4021 358.792C77.2821 355.672 77.2821 350.592 80.4021 347.472L112.002 315.88L52.6901 256.568L16.9781 292.28C6.40212 302.856 0.578125 316.92 0.578125 331.88C0.578125 346.84 6.40212 360.896 16.9781 371.472L125.098 479.592C135.674 490.168 149.738 496 164.698 496C179.658 496 193.714 490.168 204.042 479.832L243.01 444.128L230.858 432H402.522ZM335.426 280C335.426 284.416 331.834 288 327.426 288H320.698C323.018 282.712 324.778 277.136 325.914 271.336C329.338 270.624 332.49 269.264 335.426 267.552V280ZM327.426 253.776V226.224C332.186 229 335.426 234.104 335.426 240C335.426 245.896 332.186 251 327.426 253.776ZM167.426 253.776C162.666 251 159.426 245.896 159.426 240C159.426 234.104 162.666 229 167.426 226.224V253.776ZM167.426 200V209.136C164.578 209.88 161.906 211 159.426 212.448V184C159.426 135.48 198.906 96 247.426 96C295.946 96 335.426 135.48 335.426 184V212.448C332.946 211 330.274 209.872 327.426 209.136V200H319.426C295.77 200 273.53 190.784 256.794 174.056L247.426 164.688L238.058 174.056C221.322 190.784 199.082 200 175.426 200H167.426ZM183.426 256V215.696C207.45 213.888 229.85 203.976 247.426 187.264C265.002 203.976 287.402 213.896 311.426 215.696V256C311.426 267.664 308.242 278.576 302.77 288H247.426V304H289.618C278.338 313.928 263.594 320 247.426 320C212.138 320 183.426 291.288 183.426 256ZM271.426 332.312V332.688L247.426 356.688L223.426 332.688V332.312C231.01 334.696 239.066 336 247.426 336C255.786 336 263.842 334.696 271.426 332.312ZM126.018 381.488C130.634 367.632 142.434 357.4 156.81 354.776L212.73 344.616L247.426 379.312L282.114 344.624L338.026 354.784C352.402 357.408 364.202 367.632 368.818 381.496L380.33 416H214.858L183.698 384.84L149.074 416.16C146.058 419.192 140.786 419.192 137.762 416.16L120.29 398.688L126.018 381.488ZM52.6821 279.192L89.3701 315.88L80.6821 324.568L43.9941 287.88L52.6821 279.192ZM192.962 468.296C185.41 475.832 175.362 480 164.682 480C154.002 480 143.954 475.832 136.394 468.28L28.2741 360.168C20.7221 352.616 16.5621 342.568 16.5621 331.888C16.5621 321.2 20.7221 311.152 28.2741 303.6L32.6741 299.2L69.3621 335.888L69.0741 336.176C59.7221 345.536 59.7221 360.76 69.0741 370.12L126.442 427.488C130.978 432.016 137.002 434.52 143.418 434.52C149.834 434.52 155.858 432.024 160.098 427.768L160.698 427.232L197.554 464.088L192.962 468.296ZM209.362 453.256L172.586 416.48L183.154 406.928L219.866 443.64L209.362 453.256Z" fill="#1B4F72"/>
<path d="M471.43 0H359.43C346.198 0 335.43 10.768 335.43 24V88C335.43 101.232 346.198 112 359.43 112H380.798L372.526 160.248L449.726 112H471.43C484.662 112 495.43 101.232 495.43 88V24C495.43 10.768 484.662 0 471.43 0ZM479.43 88C479.43 92.408 475.838 96 471.43 96H445.134L394.326 127.752L399.774 96H359.43C355.022 96 351.43 92.408 351.43 88V24C351.43 19.592 355.022 16 359.43 16H471.43C475.838 16 479.43 19.592 479.43 24V88Z" fill="#1B4F72"/>
<path d="M463.43 32H367.43V48H463.43V32Z" fill="#1B4F72"/>
<path d="M431.43 64H367.43V80H431.43V64Z" fill="#1B4F72"/>
<path d="M463.43 64H447.43V80H463.43V64Z" fill="#1B4F72"/>
<path d="M247.426 24C142.898 24 52.8583 96.304 29.4503 197.16L14.2903 171.888L0.570312 180.12L28.6903 226.976L75.5463 198.856L67.3143 185.136L45.6343 198.144C68.3063 105.88 151.274 40 247.426 40C268.442 40 289.178 43.12 309.058 49.28L313.794 34C292.378 27.36 270.05 24 247.426 24Z" fill="#1B4F72"/>
<path d="M491.539 177.136L444.683 149.016L416.571 195.88L430.291 204.112L444.291 180.776C451.659 202.336 455.427 224.888 455.427 248C455.427 295.576 438.947 342.088 409.035 378.96L421.459 389.04C453.683 349.328 471.427 299.232 471.427 248C471.427 223.528 467.483 199.632 459.795 176.752L483.307 190.856L491.539 177.136Z" fill="#1B4F72"/>
</g>
<defs>
<clipPath id="clip0_145_93">
<rect width="496" height="496" fill="white"/>
</clipPath>
</defs>
</svg>
