<svg width="512" height="512" viewBox="0 0 512 512" fill="none" xmlns="http://www.w3.org/2000/svg">
<g clip-path="url(#clip0_144_41)">
<path d="M502.399 390.613C497.703 391.009 494.217 395.136 494.613 399.832C499.817 461.527 438.425 513.086 374.501 488.73C368.295 486.365 361.963 484.457 355.524 483.003C464.332 435.067 525.479 315.728 496.981 197.485C495.625 178.741 498.214 160.615 504.697 143.602C535.633 62.4169 463.238 -16.3007 382.453 2.98835C377.87 4.08367 375.043 8.68676 376.137 13.2707C377.232 17.8535 381.835 20.6862 386.419 19.5866C453.674 3.50775 514.872 68.977 488.751 137.526C486.417 143.655 484.525 149.904 483.078 156.26C445.401 70.5608 359.243 8.11297 256.036 8.11297C153.32 8.11297 66.7762 69.6148 28.9095 156.011C27.4697 149.741 25.6001 143.572 23.2954 137.524C-4.24958 65.2357 64.4683 -1.96562 134.543 22.1835C139 23.7193 143.853 21.3517 145.389 16.8968C146.925 12.442 144.558 7.58611 140.103 6.05033C55.325 -23.1691 -24.9187 58.9176 7.34987 143.6C13.7916 160.507 16.3865 178.512 15.0885 197.132C5.98366 234.951 5.6573 275.543 15.0587 314.42C16.4302 333.2 13.8428 351.358 7.3488 368.399C-24.0644 450.839 50.5086 528.968 130.928 508.684C135.497 507.532 138.268 502.894 137.115 498.325C135.964 493.756 131.323 490.984 126.756 492.138C59.284 509.15 -3.05828 443.637 23.2954 374.476C25.6428 368.315 27.5422 362.031 28.9927 355.64C58.4094 422.549 116.232 473.409 186.194 493.912C191.066 495.456 196.44 492.309 197.199 486.988C197.733 483.288 195.039 449.982 206.154 403.524C280.483 428.717 363.119 394.342 397.094 321.872C421.685 327.947 444.356 330.263 446.488 330.263C450.823 330.263 454.535 326.97 454.968 322.564C455.429 317.876 452.001 313.699 447.311 313.238C432.631 311.795 417.954 309.309 403.547 305.864C414.162 274.543 414.768 239.24 403.545 206.132C428.345 200.199 453.735 197.201 479.255 197.21C510.297 314.923 444.178 434.797 331.833 474.021C331.625 460.164 330.588 446.288 328.714 432.623C328.073 427.956 323.781 424.683 319.1 425.33C314.432 425.971 311.168 430.275 311.808 434.944C313.812 449.551 314.822 464.414 314.818 479.221C289.215 485.978 263.201 488.097 237.83 486.12C233.156 485.742 229.027 489.265 228.661 493.963C228.294 498.66 231.806 502.766 236.504 503.132C262.051 505.122 288.317 503.248 314.237 496.979C333.087 495.571 351.32 498.158 368.425 504.675C444.017 533.48 517.884 472.715 511.618 398.4C511.222 393.702 507.092 390.213 502.399 390.613ZM180.203 474.075C112.43 450.579 60.8752 397.675 37.9397 331.819C63.9084 331.439 89.733 328.098 114.95 321.865C130.424 354.876 157.147 381.6 190.158 397.074C183.926 422.291 180.583 448.111 180.203 474.075ZM256.023 394.648C179.572 394.648 117.376 332.452 117.376 256.001C117.376 179.549 179.572 117.353 256.023 117.353C332.475 117.353 394.671 179.549 394.671 256.001C394.671 332.452 332.474 394.648 256.023 394.648ZM397.096 190.136C381.622 157.126 354.899 130.403 321.889 114.928C325.512 100.26 328.183 85.2947 329.831 70.339C330.346 65.6548 326.967 61.4389 322.284 60.9237C317.575 60.4129 313.385 63.7884 312.869 68.4704C311.393 81.8808 309.04 95.2955 305.888 108.477C290.227 103.169 273.455 100.289 256.023 100.289C149.35 100.289 74.4712 205.468 108.501 305.87C83.6859 311.806 58.2665 314.8 32.7415 314.791C22.7834 276.922 22.5616 236.041 32.8311 197.209C48.109 197.211 63.4466 198.279 78.5058 200.415C83.2177 201.079 87.4955 197.789 88.1514 193.164C88.8126 188.5 85.5672 184.18 80.9012 183.519C66.7645 181.515 52.3996 180.408 38.0496 180.192C61.2325 113.899 113.891 61.1904 180.226 38.0043C180.488 55.4461 182.06 72.8954 184.966 90.029C185.745 94.6278 190.104 97.805 194.805 97.0147C199.45 96.2265 202.578 91.8218 201.791 87.175C198.755 69.2724 197.236 51.0062 197.24 32.7826C314.441 1.81199 434.661 67.3218 474.045 180.182C448.098 180.569 422.298 183.907 397.096 190.136Z" fill="#1B4F72"/>
<path d="M353.005 257.906C351.797 253.352 347.13 250.64 342.571 251.846C338.016 253.054 335.304 257.725 336.511 262.28C337.267 265.134 337.077 265.262 337.077 284.795C337.077 294.204 329.422 301.86 320.013 301.86H307.215V249.6H313.614C318.326 249.6 322.146 245.78 322.146 241.068V220.804C322.146 184.343 292.483 154.68 256.022 154.68C219.561 154.68 189.898 184.343 189.898 220.804V232.61C172.07 233.716 157.902 248.564 157.902 266.665V284.795C157.902 303.614 173.212 318.924 192.031 318.924H213.361C218.073 318.924 221.893 315.104 221.893 310.392V272.341C221.893 267.629 218.073 263.808 213.361 263.808C208.649 263.808 204.829 267.629 204.829 272.341V301.86H192.031C182.622 301.86 174.967 294.204 174.967 284.795V266.665C174.967 257.256 182.622 249.6 192.031 249.6H198.43C203.142 249.6 206.962 245.78 206.962 241.068V220.804C206.962 193.753 228.971 171.744 256.022 171.744C283.073 171.744 305.082 193.753 305.082 220.804V232.536H298.683C293.971 232.536 290.151 236.356 290.151 241.068V310.392C290.151 315.104 293.971 318.924 298.683 318.924H301.378C296.309 330.647 285.473 338.848 272.157 340.305C267.473 340.817 264.091 345.031 264.605 349.715C265.113 354.35 269.279 357.784 274.015 357.267C295.759 354.887 313.527 339.54 319.429 318.924C339.79 318.924 354.142 302.876 354.142 284.795C354.143 266.106 354.507 263.567 353.005 257.906Z" fill="#1B4F72"/>
</g>
<defs>
<clipPath id="clip0_144_41">
<rect width="512" height="512" fill="white"/>
</clipPath>
</defs>
</svg>
