<svg width="512" height="512" viewBox="0 0 512 512" fill="none" xmlns="http://www.w3.org/2000/svg">
<g clip-path="url(#clip0_145_76)">
<path d="M441.071 438.11L494.966 394.039C504.622 387.468 507.373 374.449 501.202 364.531C495.017 354.592 482.081 351.321 471.915 357.127L362.375 423.725L266.602 396.645L338.672 366.35C351.2 361.041 357.391 346.862 352.767 334.065C347.878 320.53 332.8 313.68 319.39 318.899L268.581 338.672C201.779 297.68 157.095 348.494 157.095 348.494H127.176" stroke="#1B4F72" stroke-width="15.0205" stroke-miterlimit="10"/>
<path d="M127.176 478.863H181.128L366.742 498.89L429.266 447.763" stroke="#1B4F72" stroke-width="15.0205" stroke-miterlimit="10"/>
<path d="M436.06 378.925L442.127 359.485C446.571 348.685 441.703 336.301 431.093 331.417C420.458 326.523 407.857 330.912 402.565 341.355L364.117 422.664" stroke="#1B4F72" stroke-width="15.0205" stroke-miterlimit="10"/>
<path d="M127.175 406.111V504.308H7.51172V324.062H127.175V391.154" stroke="#1B4F72" stroke-width="15.0205" stroke-miterlimit="10"/>
<path d="M67.3453 466.382C79.0283 466.382 88.4993 456.911 88.4993 445.228C88.4993 433.545 79.0283 424.074 67.3453 424.074C55.6623 424.074 46.1914 433.545 46.1914 445.228C46.1914 456.911 55.6623 466.382 67.3453 466.382Z" stroke="#1B4F72" stroke-width="15.0205" stroke-miterlimit="10"/>
<path d="M386.531 211.909H286.395V247.625H386.531V211.909Z" stroke="#1B4F72" stroke-width="15.0205" stroke-miterlimit="10"/>
<path d="M366.504 247.625H306.422V285.729H366.504V247.625Z" stroke="#1B4F72" stroke-width="15.0205" stroke-miterlimit="10"/>
<path d="M423.481 141.091C428.654 129.366 431.527 116.398 431.527 102.758C431.527 50.2536 388.963 7.69043 336.459 7.69043C283.954 7.69043 241.391 50.2536 241.391 102.758C241.391 136.915 259.407 166.859 286.452 183.619V211.908H386.464V183.619C398.489 176.167 408.729 166.107 416.395 154.231" stroke="#1B4F72" stroke-width="15.0205" stroke-miterlimit="10"/>
<path d="M372.198 87.5254L329.713 130.009L300.727 101.023" stroke="#1B4F72" stroke-width="15.0205" stroke-miterlimit="10"/>
<path d="M211.292 105.826H166.355" stroke="#1B4F72" stroke-width="15.0205" stroke-miterlimit="10"/>
<path d="M226.588 168.806L187.672 191.273" stroke="#1B4F72" stroke-width="15.0205" stroke-miterlimit="10"/>
<path d="M443.391 173.901L482.307 196.369" stroke="#1B4F72" stroke-width="15.0205" stroke-miterlimit="10"/>
<path d="M461.633 111.708H506.569" stroke="#1B4F72" stroke-width="15.0205" stroke-miterlimit="10"/>
<path d="M446.332 48.7295L485.248 26.2607" stroke="#1B4F72" stroke-width="15.0205" stroke-miterlimit="10"/>
<path d="M229.529 43.6347L190.613 21.166" stroke="#1B4F72" stroke-width="15.0205" stroke-miterlimit="10"/>
</g>
<defs>
<clipPath id="clip0_145_76">
<rect width="512" height="512" fill="white"/>
</clipPath>
</defs>
</svg>
