<svg width="512" height="512" viewBox="0 0 512 512" fill="none" xmlns="http://www.w3.org/2000/svg">
<path d="M335.9 368.1L227.24 307.92V278.67C244.52 266.94 255.9 247.13 255.9 224.72V178.27C259.16 175.86 262.27 173.19 265.18 170.24C277.48 157.77 284.4 142.08 284.19 127.19C284.16 125.4 283.34 123.72 281.95 122.6C280.56 121.48 278.74 121.04 276.99 121.4C273.94 122.02 270.79 122.34 267.63 122.34C251.59 122.34 244.6 115.95 236.51 108.55C227.42 100.24 217.12 90.83 194.48 90.83C179.33 90.83 165.27 96.11 155.09 105.46C150.45 102.85 145.41 101.5 140.27 101.5C119.85 101.5 103.24 123.06 103.24 149.56C103.24 161.31 106.45 172.45 112.32 181.19V224.71C112.32 247.13 123.7 266.93 140.98 278.66V307.91L32.32 368.1C21.48 374.1 15 385.09 15 397.49V491C15 494.31 17.69 497 21 497H347.23C350.54 497 353.23 494.31 353.23 491V397.49C353.23 385.09 346.75 374.1 335.9 368.1ZM250.78 334.67L226.58 376.97L192.95 349.78L222.39 318.94L250.78 334.67ZM207.64 485H160.59V418.61L170.71 399.92H197.53L207.65 418.61V485H207.64ZM197 387.91H171.23L165.47 373.14L184.11 358.07L202.75 373.14L197 387.91ZM140.26 113.5C144.45 113.5 148.45 114.99 152.16 117.92C154.66 119.9 158.28 119.58 160.39 117.18C168.3 108.2 181.05 102.84 194.48 102.84C212.46 102.84 219.85 109.6 228.41 117.42C237.09 125.36 246.93 134.35 267.63 134.35C268.97 134.35 270.32 134.3 271.65 134.21C270.01 143.82 264.75 153.58 256.64 161.82C245.1 173.53 229.33 180.52 214.45 180.52C190.02 180.52 168.12 166.85 159.96 146.52C159.24 144.73 157.71 143.4 155.84 142.93C155.36 142.81 154.88 142.75 154.4 142.75C152.99 142.75 151.62 143.24 150.52 144.17L119.81 170.19C116.85 164.18 115.26 157.06 115.26 149.56C115.24 129.67 126.46 113.5 140.26 113.5ZM124.32 224.71V182.07L152.36 158.31C164.19 179.05 188.15 192.5 214.44 192.5C224.46 192.5 234.54 190.05 243.9 185.52V224.7C243.9 254.02 220.05 277.87 190.73 277.87H177.5C148.18 277.89 124.32 254.03 124.32 224.71ZM177.5 289.89H190.73C199.4 289.89 207.67 288.17 215.25 285.09V309.06L184.12 341.67L152.99 309.06V285.09C160.55 288.17 168.83 289.89 177.5 289.89ZM145.84 318.95L175.28 349.79L141.65 376.98L117.45 334.68L145.84 318.95ZM27 397.49C27 389.4 31.06 382.51 38.14 378.59L106.95 340.48L134.73 389.04C135.6 390.57 137.1 391.63 138.83 391.96C139.2 392.03 139.57 392.06 139.94 392.06C141.3 392.06 142.64 391.6 143.71 390.73L155.68 381.05L160.53 393.49L149.31 414.22C148.84 415.1 148.59 416.08 148.59 417.08V485H85.84V443.62C85.84 440.31 83.15 437.62 79.84 437.62C76.53 437.62 73.84 440.31 73.84 443.62V485H27V397.49ZM341.23 485H294.38V443.62C294.38 440.31 291.69 437.62 288.38 437.62C285.07 437.62 282.38 440.31 282.38 443.62V485H219.64V417.09C219.64 416.09 219.39 415.11 218.92 414.23L207.7 393.5L212.55 381.06L224.52 390.74C225.6 391.61 226.93 392.07 228.29 392.07C228.66 392.07 229.03 392.04 229.4 391.97C231.13 391.65 232.63 390.58 233.5 389.05L261.28 340.49L330.1 378.6C337.18 382.52 341.23 389.41 341.23 397.5V485ZM403.29 70.47C361.64 70.47 327.76 104.35 327.76 146C327.76 171.17 340.36 186.28 350.49 198.41C358.64 208.18 365.19 216.05 365.05 226.99C361.53 229.88 359.28 234.27 359.28 239.17C359.28 245.33 362.85 250.67 368.02 253.25C367.4 254.94 367.04 256.77 367.04 258.67C367.04 266.97 373.49 273.77 381.64 274.37C382.66 285.43 391.98 294.12 403.3 294.12C414.62 294.12 423.94 285.43 424.96 274.37C433.11 273.78 439.56 266.97 439.56 258.67C439.56 256.76 439.2 254.94 438.58 253.25C443.75 250.66 447.32 245.33 447.32 239.17C447.32 234.27 445.07 229.88 441.55 226.99C441.41 216.05 447.96 208.18 456.11 198.41C466.24 186.27 478.84 171.17 478.84 146C478.81 104.35 444.93 70.47 403.29 70.47ZM431.55 235.41C433.59 235.41 435.3 237.13 435.3 239.16C435.3 241.19 433.58 242.91 431.55 242.91H375.03C372.99 242.91 371.28 241.19 371.28 239.16C371.28 237.13 373 235.41 375.03 235.41H431.55ZM403.28 282.12C398.61 282.12 394.7 278.82 393.75 274.43H412.81C411.86 278.82 407.95 282.12 403.28 282.12ZM423.79 262.43H382.77C380.73 262.43 379.02 260.71 379.02 258.68C379.02 256.65 380.74 254.93 382.77 254.93H423.79C425.82 254.93 427.54 256.65 427.54 258.68C427.54 260.71 425.83 262.43 423.79 262.43ZM446.87 190.72C438.94 200.23 430.78 210.01 429.64 223.41H409.28V183.22C420.53 180.51 428.91 170.37 428.91 158.3C428.91 144.17 417.41 132.67 403.28 132.67C399.97 132.67 397.28 135.36 397.28 138.67C397.28 141.98 399.97 144.67 403.28 144.67C410.8 144.67 416.91 150.79 416.91 158.3C416.91 163.66 413.79 168.3 409.28 170.52V165.43C409.28 162.12 406.59 159.43 403.28 159.43C399.97 159.43 397.28 162.12 397.28 165.43V170.52C392.77 168.3 389.65 163.66 389.65 158.3C389.65 154.99 386.96 152.3 383.65 152.3C380.34 152.3 377.65 154.99 377.65 158.3C377.65 170.37 386.03 180.51 397.28 183.22V223.41H376.92C375.79 210.01 367.63 200.22 359.69 190.72C349.89 178.97 339.75 166.82 339.75 145.99C339.75 110.96 368.25 82.46 403.28 82.46C438.31 82.46 466.81 110.96 466.81 145.99C466.81 166.82 456.68 178.97 446.87 190.72ZM397.29 46.57V21C397.29 17.69 399.98 15 403.29 15C406.6 15 409.29 17.69 409.29 21V46.57C409.29 49.88 406.6 52.57 403.29 52.57C399.98 52.57 397.29 49.88 397.29 46.57ZM495.24 61.58L477.16 79.66C475.99 80.83 474.45 81.42 472.92 81.42C471.38 81.42 469.85 80.83 468.68 79.66C466.34 77.32 466.34 73.52 468.68 71.17L486.76 53.09C489.1 50.75 492.9 50.75 495.24 53.09C497.59 55.43 497.59 59.23 495.24 61.58ZM311.33 61.58C308.99 59.24 308.99 55.44 311.33 53.09C313.67 50.75 317.47 50.75 319.81 53.09L337.89 71.17C340.23 73.51 340.23 77.31 337.89 79.66C336.72 80.83 335.18 81.42 333.65 81.42C332.12 81.42 330.58 80.83 329.41 79.66L311.33 61.58Z" fill="#1B4F72"/>
</svg>
