<svg width="512" height="512" viewBox="0 0 512 512" fill="none" xmlns="http://www.w3.org/2000/svg">
<path d="M377.064 204.368H462.546C466.412 204.368 469.546 207.502 469.546 211.368C469.546 215.234 466.412 218.368 462.546 218.368H377.064C373.198 218.368 370.064 215.234 370.064 211.368C370.064 207.502 373.198 204.368 377.064 204.368ZM503 159.516V352.486C503 356.352 499.866 359.486 496 359.486H343.611C339.745 359.486 336.611 356.352 336.611 352.486V190.894C336.611 189.038 337.348 187.257 338.661 185.945L370.038 154.567C371.351 153.254 373.132 152.516 374.988 152.516H496C499.866 152.516 503 155.649 503 159.516ZM360.51 183.894H367.988V176.416L360.51 183.894ZM489 166.516H381.988V190.894C381.988 194.76 378.854 197.894 374.988 197.894H350.611V345.486H489V166.516ZM321.942 345.116C336.776 370.601 344.617 399.744 344.617 429.393C344.617 445.969 335.103 469.231 289.783 485.916C259.862 496.934 219.741 503 176.809 503C133.877 503 93.755 496.934 63.834 485.917C18.514 469.231 9 445.97 9 429.394C9 399.747 16.841 370.605 31.676 345.12C46.066 320.4 66.677 299.613 91.281 285.009C94.502 283.099 98.651 284.059 100.706 287.186L143.944 353.029L149.702 310.088C148.064 308.211 146.779 305.991 145.972 303.507L140.367 286.257C138.476 280.438 139.446 274.275 143.026 269.346C146.607 264.418 152.17 261.591 158.289 261.591H195.331C201.449 261.591 207.012 264.417 210.593 269.346C214.173 274.275 215.143 280.438 213.252 286.257L207.647 303.507C206.84 305.991 205.554 308.211 203.917 310.088L209.675 353.029L252.915 287.182C254.97 284.056 259.12 283.094 262.34 285.005C286.942 299.608 307.554 320.396 321.942 345.116ZM153.681 281.93L159.286 299.18C159.957 301.244 161.722 302.527 163.891 302.527H189.725C191.895 302.527 193.66 301.245 194.33 299.18L199.935 281.93C200.425 280.422 200.18 278.835 199.264 277.574C198.348 276.313 196.913 275.591 195.328 275.591H158.286C156.7 275.591 155.265 276.314 154.349 277.575C153.436 278.835 153.191 280.422 153.681 281.93ZM190.649 316.49C190.342 316.505 190.036 316.527 189.725 316.527H163.891C163.58 316.527 163.274 316.505 162.967 316.49L155.673 370.89L176.808 403.075L197.943 370.89L190.649 316.49ZM330.617 429.394C330.617 377.601 304.055 328.852 260.863 300.581L182.66 419.67C181.365 421.641 179.166 422.827 176.808 422.827C174.45 422.827 172.251 421.64 170.956 419.67L92.756 300.584C49.562 328.855 23 377.604 23 429.394C23 451.355 47.836 465.109 68.671 472.78C97.081 483.239 135.485 489 176.809 489C218.133 489 256.537 483.239 284.947 472.779C305.781 465.108 330.617 451.354 330.617 429.394ZM295.626 163.157H325.613C329.479 163.157 332.613 160.023 332.613 156.157C332.613 152.291 329.479 149.157 325.613 149.157H295.626C291.76 149.157 288.626 152.291 288.626 156.157C288.626 160.023 291.76 163.157 295.626 163.157ZM259.513 83.662C261.304 83.662 263.096 82.978 264.463 81.612L285.667 60.408C288.4 57.674 288.4 53.242 285.667 50.508C282.933 47.776 278.501 47.776 275.767 50.508L254.563 71.712C251.83 74.446 251.83 78.878 254.563 81.612C255.93 82.979 257.722 83.662 259.513 83.662ZM177.766 52.987C181.632 52.987 184.766 49.853 184.766 45.987V16C184.766 12.134 181.632 9 177.766 9C173.9 9 170.766 12.134 170.766 16V45.987C170.766 49.854 173.899 52.987 177.766 52.987ZM462.547 263.877H377.065C373.199 263.877 370.065 267.011 370.065 270.877C370.065 274.743 373.199 277.877 377.065 277.877H462.547C466.413 277.877 469.547 274.743 469.547 270.877C469.547 267.011 466.413 263.877 462.547 263.877ZM462.547 234.123H377.065C373.199 234.123 370.065 237.257 370.065 241.123C370.065 244.989 373.199 248.123 377.065 248.123H462.547C466.413 248.123 469.547 244.989 469.547 241.123C469.547 237.257 466.413 234.123 462.547 234.123ZM37.608 170.849H67.595C71.461 170.849 74.595 167.715 74.595 163.849C74.595 159.983 71.461 156.849 67.595 156.849H37.608C33.742 156.849 30.608 159.983 30.608 163.849C30.608 167.715 33.742 170.849 37.608 170.849ZM419.806 293.633H377.065C373.199 293.633 370.065 296.767 370.065 300.633C370.065 304.499 373.199 307.633 377.065 307.633H419.806C423.672 307.633 426.806 304.499 426.806 300.633C426.806 296.767 423.672 293.633 419.806 293.633ZM93.32 87.051C94.687 88.418 96.478 89.102 98.27 89.102C100.061 89.102 101.853 88.418 103.219 87.052C105.953 84.318 105.953 79.886 103.22 77.153L82.017 55.947C79.284 53.215 74.851 53.214 72.118 55.946C69.384 58.68 69.384 63.112 72.117 65.845L93.32 87.051ZM101.94 142.997C101.94 133.468 107.92 125.315 116.322 122.08V86.26C116.322 73.905 126.375 63.852 138.731 63.852C147.377 63.852 154.891 68.778 158.626 75.969C161.86 74.156 165.584 73.117 169.548 73.117C178.194 73.117 185.708 78.043 189.443 85.233C192.677 83.42 196.401 82.381 200.365 82.381C209.011 82.381 216.525 87.308 220.26 94.498C223.494 92.685 227.218 91.646 231.182 91.646C243.537 91.646 253.589 101.699 253.589 114.054L253.426 189.333C253.426 202.937 243.08 214.359 229.248 217.291V225.762C229.248 229.628 226.114 232.762 222.248 232.762H131.366C127.5 232.762 124.366 229.628 124.366 225.762V213.025C109.658 206.945 101.744 195.78 101.942 181.15L101.94 142.997ZM222.773 142.996C222.773 147.633 226.544 151.404 231.181 151.404C235.492 151.404 239.055 148.143 239.535 143.959C239.565 134.956 239.59 125.38 239.59 114.053C239.59 109.416 235.819 105.645 231.183 105.645C226.546 105.645 222.774 109.416 222.774 114.053V142.996H222.773ZM191.956 123.411C198.433 127.02 202.941 133.747 203.441 141.549C206.559 140.318 208.773 137.282 208.773 133.733V104.789C208.773 100.152 205.002 96.381 200.365 96.381C195.728 96.381 191.956 100.152 191.956 104.789V123.411ZM161.14 120.588H177.956V95.523C177.956 90.887 174.185 87.116 169.548 87.116C164.911 87.116 161.14 90.887 161.14 95.523V120.588ZM130.322 120.588H147.139V86.26C147.139 81.623 143.368 77.852 138.731 77.852C134.094 77.852 130.322 81.623 130.322 86.26V120.588ZM115.943 181.2C115.943 181.235 115.943 181.27 115.942 181.304C115.888 184.928 115.725 195.956 133.429 201.414C136.364 202.319 138.367 205.032 138.367 208.103V218.759H215.249V211.017C215.249 207.151 218.383 204.017 222.249 204.017C231.721 204.017 239.427 197.429 239.427 189.33C239.427 179.822 239.445 171.549 239.468 163.814C236.904 164.838 234.108 165.402 231.182 165.402C222.536 165.402 215.022 160.476 211.287 153.285C208.053 155.098 204.329 156.137 200.365 156.137C199.991 156.137 199.621 156.111 199.249 156.093C195.175 161.727 188.553 165.403 181.085 165.403H166.081C170.281 170.95 172.421 177.698 172.307 185.409C172.25 189.239 169.127 192.305 165.31 192.305C165.275 192.305 165.24 192.305 165.205 192.304C161.339 192.247 158.252 189.067 158.309 185.201C158.363 181.571 158.527 170.525 140.713 165.098C137.396 164.087 135.318 160.8 135.829 157.37C136.34 153.94 139.285 151.401 142.753 151.401H181.085C185.721 151.401 189.492 147.629 189.492 142.992C189.492 138.355 185.721 134.584 181.085 134.584H124.347C119.711 134.584 115.94 138.355 115.94 142.992L115.943 181.2Z" fill="#1B4F72"/>
</svg>
