<svg width="512" height="512" viewBox="0 0 512 512" fill="none" xmlns="http://www.w3.org/2000/svg">
<g clip-path="url(#clip0_145_53)">
<path d="M275.436 480C273.827 480 272.255 479.514 270.925 478.607C269.595 477.7 268.57 476.413 267.983 474.914L224.374 363.352C223.983 362.354 223.798 361.287 223.827 360.216C223.857 359.144 224.102 358.09 224.547 357.115C224.992 356.14 225.629 355.264 226.419 354.54C227.209 353.816 228.137 353.258 229.147 352.899L365.265 304.461C366.991 303.857 368.872 303.854 370.601 304.453L506.71 352.375C507.751 352.743 508.704 353.322 509.511 354.076C510.317 354.83 510.959 355.742 511.396 356.756C511.834 357.77 512.057 358.863 512.051 359.967C512.046 361.071 511.813 362.162 511.366 363.172L461.491 475.25C460.629 477.189 459.032 478.707 457.051 479.469C455.07 480.231 452.868 480.174 450.929 479.313C448.989 478.451 447.472 476.854 446.71 474.873C445.948 472.892 446.004 470.689 446.866 468.75L493.218 364.586L367.96 320.484L242.28 365.211L282.889 469.086C283.364 470.299 283.536 471.609 283.39 472.904C283.243 474.198 282.782 475.437 282.048 476.513C281.313 477.589 280.327 478.469 279.175 479.076C278.022 479.684 276.739 480.001 275.436 480Z" fill="#1B4F72"/>
<path d="M151.945 456C150.895 456.001 149.854 455.794 148.883 455.392C147.912 454.99 147.03 454.401 146.287 453.658C145.544 452.915 144.955 452.033 144.553 451.062C144.151 450.091 143.945 449.051 143.945 448V432H39.9453V448C39.9453 450.122 39.1025 452.157 37.6022 453.657C36.1019 455.157 34.067 456 31.9453 456C29.8236 456 27.7888 455.157 26.2885 453.657C24.7882 452.157 23.9453 450.122 23.9453 448V424C23.9447 422.949 24.1512 421.909 24.5531 420.938C24.9549 419.967 25.5441 419.085 26.2871 418.342C27.0301 417.599 27.9123 417.01 28.8831 416.608C29.854 416.206 30.8946 415.999 31.9453 416H151.945C152.996 415.999 154.037 416.206 155.007 416.608C155.978 417.01 156.861 417.599 157.604 418.342C158.347 419.085 158.936 419.967 159.338 420.938C159.739 421.909 159.946 422.949 159.945 424V448C159.946 449.051 159.739 450.091 159.338 451.062C158.936 452.033 158.347 452.915 157.604 453.658C156.861 454.401 155.978 454.99 155.007 455.392C154.037 455.794 152.996 456.001 151.945 456Z" fill="#1B4F72"/>
<path d="M127.945 432C126.895 432.001 125.854 431.794 124.883 431.392C123.912 430.99 123.03 430.401 122.287 429.658C121.544 428.915 120.955 428.033 120.553 427.062C120.151 426.091 119.945 425.051 119.945 424V104C119.945 101.878 120.788 99.8434 122.288 98.3431C123.789 96.8429 125.824 96 127.945 96C130.067 96 132.102 96.8429 133.602 98.3431C135.102 99.8434 135.945 101.878 135.945 104V424C135.946 425.051 135.739 426.091 135.338 427.062C134.936 428.033 134.347 428.915 133.604 429.658C132.861 430.401 131.978 430.99 131.007 431.392C130.037 431.794 128.996 432.001 127.945 432Z" fill="#1B4F72"/>
<path d="M127.945 64C126.895 64.0003 125.854 63.7935 124.884 63.3916C123.913 62.9897 123.031 62.4004 122.288 61.6575C121.545 60.9145 120.956 60.0325 120.554 59.0618C120.152 58.0911 119.945 57.0507 119.945 56V16H63.9453V56C63.9453 58.1217 63.1025 60.1566 61.6022 61.6569C60.1019 63.1571 58.067 64 55.9453 64C53.8236 64 51.7888 63.1571 50.2885 61.6569C48.7882 60.1566 47.9453 58.1217 47.9453 56V8C47.945 6.94935 48.1518 5.90894 48.5537 4.93821C48.9557 3.96748 49.5449 3.08546 50.2878 2.34254C51.0308 1.59961 51.9128 1.01035 52.8835 0.608407C53.8543 0.206467 54.8947 -0.000272984 55.9453 2.91784e-07H127.945C128.996 -0.0002835 130.036 0.206449 131.007 0.608386C131.978 1.01032 132.86 1.59959 133.603 2.34251C134.346 3.08544 134.935 3.96746 135.337 4.9382C135.739 5.90893 135.946 6.94935 135.945 8V56C135.946 57.0507 135.739 58.0911 135.337 59.0618C134.935 60.0325 134.346 60.9146 133.603 61.6575C132.86 62.4004 131.978 62.9897 131.007 63.3916C130.036 63.7936 128.996 64.0003 127.945 64Z" fill="#1B4F72"/>
<path d="M55.9453 432C54.8946 432.001 53.854 431.794 52.8831 431.392C51.9123 430.99 51.0301 430.401 50.2871 429.658C49.5441 428.915 48.9549 428.033 48.5531 427.062C48.1512 426.091 47.9447 425.051 47.9453 424V104C47.9453 101.878 48.7882 99.8434 50.2885 98.3431C51.7888 96.8429 53.8236 96 55.9453 96C58.067 96 60.1019 96.8429 61.6022 98.3431C63.1025 99.8434 63.9453 101.878 63.9453 104V424C63.9459 425.051 63.7394 426.091 63.3376 427.062C62.9358 428.033 62.3465 428.915 61.6035 429.658C60.8605 430.401 59.9784 430.99 59.0075 431.392C58.0366 431.794 56.9961 432.001 55.9453 432Z" fill="#1B4F72"/>
<path d="M371.86 216C368.714 216.006 365.591 215.472 362.626 214.422C359.989 213.49 357.509 212.167 355.266 210.496C348.384 205.528 341.196 199.989 339.329 198.543C337.63 197.244 336.511 195.328 336.212 193.21C335.914 191.092 336.461 188.941 337.735 187.223C338.356 186.387 339.137 185.682 340.032 185.15C340.928 184.618 341.92 184.269 342.951 184.124C343.983 183.979 345.033 184.04 346.04 184.303C347.048 184.567 347.993 185.029 348.821 185.661C350.923 187.282 357.923 192.68 364.618 197.516C365.627 198.284 366.747 198.896 367.938 199.332C370.357 200.134 372.965 200.165 375.402 199.422C377.84 198.679 379.987 197.198 381.547 195.184C383.448 192.618 384.26 189.405 383.805 186.244C383.35 183.084 381.665 180.23 379.118 178.305L371.11 172.297C367.643 169.685 364.829 166.305 362.891 162.422C360.952 158.539 359.941 154.258 359.938 149.918L359.946 103.996C359.947 101.875 360.79 99.8412 362.29 98.3418C363.791 96.8423 365.825 96 367.946 96C370.067 96.0027 372.108 96.8471 373.606 98.3479C375.105 99.8487 375.946 101.883 375.946 104.004L375.938 149.918C375.938 151.777 376.37 153.611 377.199 155.274C378.029 156.938 379.234 158.386 380.719 159.504L388.766 165.539C393.472 169.077 396.946 174.007 398.694 179.629C400.442 185.252 400.376 191.282 398.506 196.865C396.635 202.448 393.055 207.3 388.273 210.735C383.49 214.169 377.748 216.012 371.86 216Z" fill="#1B4F72"/>
<path d="M415.945 112H7.94531C6.89466 112 5.85425 111.794 4.88352 111.392C3.91279 110.99 3.03077 110.4 2.28785 109.657C1.54493 108.915 0.955661 108.033 0.55372 107.062C0.151779 106.091 -0.0549605 105.051 -0.0546872 104V56C-0.0549605 54.9493 0.151779 53.9089 0.55372 52.9382C0.955661 51.9675 1.54493 51.0855 2.28785 50.3425C3.03077 49.5996 3.91279 49.0103 4.88352 48.6084C5.85425 48.2065 6.89466 47.9997 7.94531 48H415.945C416.996 47.9997 418.036 48.2065 419.007 48.6084C419.978 49.0103 420.86 49.5996 421.603 50.3425C422.346 51.0854 422.935 51.9675 423.337 52.9382C423.739 53.9089 423.946 54.9493 423.945 56V104C423.946 105.051 423.739 106.091 423.337 107.062C422.935 108.033 422.346 108.915 421.603 109.657C420.86 110.4 419.978 110.99 419.007 111.392C418.036 111.794 416.996 112 415.945 112ZM15.9453 96H407.945V64H15.9453V96Z" fill="#1B4F72"/>
<path d="M7.94361 64.0001C6.36161 63.9998 4.81522 63.5304 3.49994 62.6513C2.18466 61.7723 1.15954 60.523 0.554184 59.0614C-0.0511762 57.5998 -0.2096 55.9915 0.0989405 54.4399C0.407481 52.8883 1.16913 51.4629 2.28761 50.3441L50.2876 2.34413C51.7914 0.862155 53.8202 0.0348246 55.9315 0.0425339C58.0428 0.0502432 60.0655 0.892367 61.5585 2.38529C63.0514 3.87821 63.8936 5.90084 63.9014 8.01217C63.9091 10.1235 63.0819 12.1523 61.5999 13.6561L13.5999 61.6561C12.858 62.4002 11.9764 62.9904 11.0057 63.3926C10.035 63.7949 8.99436 64.0013 7.94361 64.0001Z" fill="#1B4F72"/>
<path d="M127.944 424C126.894 424.001 125.853 423.795 124.882 423.393C123.912 422.99 123.03 422.4 122.288 421.656L50.2882 349.656C48.841 348.209 48.0035 346.262 47.9482 344.215C47.893 342.169 48.624 340.18 49.991 338.656L116.921 264.219L50.288 197.656C48.8408 196.208 48.0035 194.26 47.9482 192.214C47.893 190.167 48.624 188.177 49.991 186.653L121.991 106.493C122.693 105.711 123.543 105.075 124.491 104.621C125.439 104.168 126.467 103.906 127.516 103.849C128.565 103.793 129.616 103.944 130.607 104.294C131.598 104.643 132.51 105.185 133.292 105.887C134.074 106.589 134.709 107.439 135.163 108.387C135.616 109.335 135.879 110.363 135.935 111.412C135.991 112.461 135.84 113.512 135.491 114.503C135.141 115.494 134.599 116.406 133.897 117.188L66.9677 191.703L133.601 258.266C135.048 259.713 135.885 261.661 135.94 263.707C135.996 265.753 135.264 267.742 133.897 269.266L66.9677 343.711L133.601 410.344C134.719 411.463 135.481 412.888 135.789 414.44C136.098 415.992 135.939 417.6 135.334 419.061C134.729 420.523 133.704 421.772 132.388 422.651C131.073 423.531 129.526 424 127.944 424Z" fill="#1B4F72"/>
<path d="M415.952 64.0001C415.51 64.0002 415.068 63.9636 414.632 63.8907L130.952 16.6134L90.6867 61.3521C89.2673 62.9289 87.2798 63.8773 85.1612 63.9886C83.0426 64.1 80.9665 63.3651 79.3898 61.9458C77.813 60.5265 76.8646 58.5389 76.7532 56.4203C76.6419 54.3017 77.3767 52.2257 78.796 50.6489L121.999 2.64888C122.899 1.65108 124.035 0.895579 125.304 0.451894C126.572 0.0082103 127.931 -0.109413 129.257 0.109845L417.257 48.1098C419.236 48.4396 421.019 49.5012 422.253 51.0841C423.486 52.6669 424.079 54.6554 423.915 56.6552C423.751 58.655 422.841 60.5201 421.366 61.8806C419.891 63.241 417.959 63.9975 415.952 64.0001Z" fill="#1B4F72"/>
<path d="M255.945 359.961C254.897 359.966 253.857 359.764 252.887 359.366C251.917 358.968 251.035 358.382 250.291 357.643C249.548 356.903 248.958 356.024 248.555 355.055C248.153 354.087 247.945 353.049 247.945 352V248C247.945 246.949 248.152 245.909 248.554 244.938C248.956 243.967 249.545 243.085 250.288 242.343C251.031 241.6 251.913 241.01 252.884 240.608C253.854 240.206 254.895 240 255.945 240H479.945C480.996 240 482.036 240.206 483.007 240.608C483.978 241.01 484.86 241.6 485.603 242.343C486.346 243.085 486.935 243.967 487.337 244.938C487.739 245.909 487.946 246.949 487.945 248V351.438C487.945 353.559 487.102 355.594 485.602 357.094C484.102 358.595 482.067 359.438 479.945 359.438C477.824 359.438 475.789 358.595 474.288 357.094C472.788 355.594 471.945 353.559 471.945 351.438V256H263.945V351.922C263.948 354.048 263.107 356.088 261.608 357.596C260.108 359.103 258.071 359.953 255.945 359.961Z" fill="#1B4F72"/>
<path d="M367.945 320C366.895 320.001 365.854 319.794 364.883 319.392C363.912 318.99 363.03 318.401 362.287 317.658C361.544 316.915 360.955 316.033 360.553 315.062C360.151 314.091 359.945 313.051 359.945 312V248C359.945 245.878 360.788 243.843 362.288 242.343C363.789 240.843 365.824 240 367.945 240C370.067 240 372.102 240.843 373.602 242.343C375.102 243.843 375.945 245.878 375.945 248V312C375.946 313.051 375.739 314.091 375.338 315.062C374.936 316.033 374.347 316.915 373.604 317.658C372.861 318.401 371.978 318.99 371.008 319.392C370.037 319.794 368.996 320.001 367.945 320Z" fill="#1B4F72"/>
<path d="M503.945 480H207.945C205.824 480 203.789 479.157 202.288 477.657C200.788 476.157 199.945 474.122 199.945 472C199.945 469.878 200.788 467.843 202.288 466.343C203.789 464.843 205.824 464 207.945 464H503.945C506.067 464 508.102 464.843 509.602 466.343C511.102 467.843 511.945 469.878 511.945 472C511.945 474.122 511.102 476.157 509.602 477.657C508.102 479.157 506.067 480 503.945 480Z" fill="#1B4F72"/>
<path d="M287.945 328C286.895 328.001 285.854 327.794 284.883 327.392C283.912 326.99 283.03 326.401 282.287 325.658C281.544 324.915 280.955 324.033 280.553 323.062C280.151 322.091 279.945 321.051 279.945 320V272C279.945 269.878 280.788 267.843 282.288 266.343C283.789 264.843 285.824 264 287.945 264C290.067 264 292.102 264.843 293.602 266.343C295.102 267.843 295.945 269.878 295.945 272V320C295.946 321.051 295.739 322.091 295.338 323.062C294.936 324.033 294.347 324.915 293.604 325.658C292.861 326.401 291.978 326.99 291.008 327.392C290.037 327.794 288.996 328.001 287.945 328Z" fill="#1B4F72"/>
<path d="M327.945 312C326.895 312.001 325.854 311.794 324.883 311.392C323.912 310.99 323.03 310.401 322.287 309.658C321.544 308.915 320.955 308.033 320.553 307.062C320.151 306.091 319.945 305.051 319.945 304V272C319.945 269.878 320.788 267.843 322.288 266.343C323.789 264.843 325.824 264 327.945 264C330.067 264 332.102 264.843 333.602 266.343C335.102 267.843 335.945 269.878 335.945 272V304C335.946 305.051 335.739 306.091 335.338 307.062C334.936 308.033 334.347 308.915 333.604 309.658C332.861 310.401 331.978 310.99 331.008 311.392C330.037 311.794 328.996 312.001 327.945 312Z" fill="#1B4F72"/>
<path d="M447.945 328C446.895 328.001 445.854 327.794 444.883 327.392C443.912 326.99 443.03 326.401 442.287 325.658C441.544 324.915 440.955 324.033 440.553 323.062C440.151 322.091 439.945 321.051 439.945 320V272C439.945 269.878 440.788 267.843 442.288 266.343C443.789 264.843 445.824 264 447.945 264C450.067 264 452.102 264.843 453.602 266.343C455.102 267.843 455.945 269.878 455.945 272V320C455.946 321.051 455.739 322.091 455.338 323.062C454.936 324.033 454.347 324.915 453.604 325.658C452.861 326.401 451.978 326.99 451.008 327.392C450.037 327.794 448.996 328.001 447.945 328Z" fill="#1B4F72"/>
<path d="M407.945 312C406.895 312.001 405.854 311.794 404.883 311.392C403.912 310.99 403.03 310.401 402.287 309.658C401.544 308.915 400.955 308.033 400.553 307.062C400.151 306.091 399.945 305.051 399.945 304V272C399.945 269.878 400.788 267.843 402.288 266.343C403.789 264.843 405.824 264 407.945 264C410.067 264 412.102 264.843 413.602 266.343C415.102 267.843 415.945 269.878 415.945 272V304C415.946 305.051 415.739 306.091 415.338 307.062C414.936 308.033 414.347 308.915 413.604 309.658C412.861 310.401 411.978 310.99 411.008 311.392C410.037 311.794 408.996 312.001 407.945 312Z" fill="#1B4F72"/>
<path d="M207.945 512C206.895 512.001 205.854 511.794 204.883 511.392C203.912 510.99 203.03 510.401 202.287 509.658C201.544 508.915 200.955 508.033 200.553 507.062C200.151 506.091 199.945 505.051 199.945 504V456H7.94531C5.82358 456 3.78875 455.157 2.28846 453.657C0.788167 452.157 -0.0546875 450.122 -0.0546875 448C-0.0546875 445.878 0.788167 443.843 2.28846 442.343C3.78875 440.843 5.82358 440 7.94531 440H207.945C208.996 439.999 210.037 440.206 211.007 440.608C211.978 441.01 212.861 441.599 213.604 442.342C214.347 443.085 214.936 443.967 215.338 444.938C215.739 445.909 215.946 446.949 215.945 448V504C215.946 505.051 215.739 506.091 215.338 507.062C214.936 508.033 214.347 508.915 213.604 509.658C212.861 510.401 211.978 510.99 211.007 511.392C210.037 511.794 208.996 512.001 207.945 512Z" fill="#1B4F72"/>
</g>
<defs>
<clipPath id="clip0_145_53">
<rect width="512" height="512" fill="white"/>
</clipPath>
</defs>
</svg>
