<svg width="852" height="852" viewBox="0 0 852 852" fill="none" xmlns="http://www.w3.org/2000/svg">
<path d="M745.5 464.607V437.982C752.848 437.982 758.813 432.022 758.813 424.669V344.794C758.813 337.441 752.848 331.481 745.5 331.481H673.613L671.033 321.482C665.147 298.611 656.005 276.703 643.873 256.437L638.548 247.53L689.588 196.401C694.725 191.253 694.725 182.912 689.588 177.764L633.051 121.144C627.83 116.167 619.629 116.167 614.408 121.144L563.275 172.277L554.372 166.952C534.076 154.815 512.147 145.673 489.245 139.781L479.25 137.181V65.2315C479.25 57.8784 473.291 51.9189 465.938 51.9189H386.063C378.709 51.9189 372.75 57.8784 372.75 65.2315V137.119L362.75 139.703C339.88 145.585 317.971 154.727 297.696 166.843L288.788 172.173L237.67 121.144C232.444 116.126 224.191 116.126 218.965 121.144L162.413 177.68C159.927 180.161 158.528 183.531 158.528 187.041C158.528 190.556 159.927 193.921 162.413 196.401L213.546 247.53L208.221 256.437C196.094 276.703 186.947 298.611 181.066 321.482L178.455 331.481H106.5C99.1469 331.481 93.1875 337.441 93.1875 344.794V424.669C93.1875 432.022 99.1469 437.982 106.5 437.982V464.607C84.446 464.607 66.5625 446.723 66.5625 424.669V344.794C66.5625 322.74 84.446 304.856 106.5 304.856H158.008C163.499 286.448 170.925 268.674 180.161 251.835L143.551 215.226C136.063 207.753 131.856 197.613 131.856 187.041C131.856 176.469 136.063 166.328 143.551 158.861L200.13 102.283C215.891 87.1971 240.743 87.1971 256.505 102.283L293.104 138.877C309.942 129.646 327.722 122.236 346.125 116.75V65.2315C346.125 43.1774 364.009 25.2939 386.063 25.2939H465.938C487.992 25.2939 505.875 43.1774 505.875 65.2315V116.75C524.284 122.236 542.053 129.662 558.896 138.892L595.506 102.283C611.273 87.1971 636.119 87.1971 651.886 102.283L708.454 158.845C715.937 166.318 720.139 176.448 720.139 187.025C720.139 197.602 715.937 207.743 708.454 215.21L671.845 251.82C681.075 268.668 688.496 286.448 693.992 304.856H745.5C767.554 304.856 785.438 322.74 785.438 344.794V424.669C785.438 446.723 767.554 464.607 745.5 464.607Z" fill="#1B4F72"/>
<path d="M612.375 384.731H585.75C585.75 296.505 514.227 224.981 426 224.981C337.774 224.981 266.25 296.505 266.25 384.731H239.625C239.625 281.799 323.067 198.356 426 198.356C528.928 198.356 612.375 281.799 612.375 384.731Z" fill="#1B4F72"/>
<path d="M426 491.231C381.887 491.231 346.125 455.465 346.125 411.356C346.125 367.243 381.887 331.481 426 331.481C470.118 331.481 505.875 367.243 505.875 411.356C505.828 455.454 470.098 491.185 426 491.231ZM426 358.106C396.593 358.106 372.75 381.949 372.75 411.356C372.75 440.764 396.593 464.606 426 464.606C455.407 464.606 479.25 440.764 479.25 411.356C479.25 381.949 455.407 358.106 426 358.106Z" fill="#1B4F72"/>
<path d="M652.313 544.481C608.199 544.481 572.438 508.715 572.438 464.606C572.438 420.493 608.199 384.731 652.313 384.731C696.426 384.731 732.188 420.493 732.188 464.606C732.141 508.704 696.41 544.435 652.313 544.481ZM652.313 411.356C622.905 411.356 599.063 435.199 599.063 464.606C599.063 494.014 622.905 517.856 652.313 517.856C681.72 517.856 705.563 494.014 705.563 464.606C705.563 435.199 681.72 411.356 652.313 411.356Z" fill="#1B4F72"/>
<path d="M199.688 544.481C155.574 544.481 119.812 508.715 119.812 464.606C119.812 420.493 155.574 384.731 199.688 384.731C243.806 384.731 279.563 420.493 279.563 464.606C279.516 508.704 243.785 544.435 199.688 544.481ZM199.688 411.356C170.28 411.356 146.438 435.199 146.438 464.606C146.438 494.014 170.28 517.856 199.688 517.856C229.095 517.856 252.938 494.014 252.938 464.606C252.938 435.199 229.095 411.356 199.688 411.356Z" fill="#1B4F72"/>
<path d="M772.999 578.636C753.16 565.001 729.64 557.726 705.563 557.794H599.063C592.588 557.851 586.124 558.439 579.744 559.546C571.226 546.223 560.144 534.731 547.144 525.719C545.194 524.247 543.145 522.911 541.008 521.73C522.386 510.451 501.018 504.513 479.25 504.544H372.75C332.038 504.398 294.102 525.173 272.293 559.546C265.896 558.439 259.422 557.851 252.938 557.794H146.438C122.381 557.726 98.8661 564.991 79.0378 578.61C46.2661 600.909 26.6458 637.97 26.625 677.606V730.856C26.6718 767.206 47.821 800.216 80.837 815.443C93.0263 821.184 106.344 824.122 119.813 824.044H252.938V797.419H133.125V650.981H106.5V796.082C101.487 795.079 96.6196 793.456 92.0019 791.267C68.419 780.393 53.302 756.821 53.25 730.856V677.606C53.2812 646.759 68.5646 617.924 94.0663 600.576C109.475 589.999 127.743 584.367 146.438 584.419H252.938C255.283 584.419 257.545 584.668 259.833 584.824C255.33 597.523 252.995 610.888 252.938 624.356V757.481C252.984 794.226 282.761 823.997 319.5 824.044H359.438V611.044H332.813V797.419H319.5C297.446 797.419 279.563 779.535 279.563 757.481V624.356C279.563 572.885 321.289 531.169 372.75 531.169H479.25C496.38 531.179 513.166 535.922 527.773 544.866C529.125 545.604 530.425 546.437 531.658 547.352C544.133 555.896 554.372 567.31 561.507 580.633C568.678 594.091 572.438 609.104 572.438 624.356V757.481C572.438 779.535 554.554 797.419 532.5 797.419H519.188V611.044H492.563V824.044H532.5C569.245 823.997 599.016 794.226 599.063 757.481V624.356C599 610.888 596.676 597.528 592.178 584.824C594.471 584.668 596.733 584.419 599.063 584.419H705.563C724.268 584.367 742.552 590.014 757.97 600.602C783.451 617.96 798.714 646.774 798.75 677.606V730.856C798.703 756.914 783.472 780.555 759.775 791.371C755.224 793.524 750.43 795.105 745.5 796.082V650.981H718.875V797.419H599.063V824.044H732.188C745.578 824.127 758.818 821.225 770.939 815.547C804.065 800.367 825.323 767.294 825.375 730.856V677.606C825.354 637.986 805.75 600.94 772.999 578.636Z" fill="#1B4F72"/>
<path d="M372.75 797.419H479.25V824.044H372.75V797.419Z" fill="#1B4F72"/>
</svg>
