<svg width="512" height="512" viewBox="0 0 512 512" fill="none" xmlns="http://www.w3.org/2000/svg">
<path d="M503.704 273.281C502.256 272.131 500.356 271.715 498.56 272.121C480.418 276.346 460.933 274.318 444.162 266.928L459.95 245.086C460.491 244.336 460.855 243.475 461.011 242.559L468.212 200.663C468.516 198.903 468.027 197.1 466.877 195.731C465.723 194.366 464.026 193.577 462.239 193.577H430.969V152.098C430.969 148.744 428.253 146.035 424.906 146.035H361.823V77.0659C361.823 73.7139 359.106 71.0049 355.76 71.0049H217.463C214.115 71.0049 211.4 73.7139 211.4 77.0659V146.035H168.184V125.205C168.184 121.857 165.469 119.142 162.121 119.142H35.591C32.244 119.142 29.529 121.857 29.529 125.205V149.637H25.148C21.798 149.637 19.085 152.35 19.085 155.701V187.75C19.085 191.102 21.799 193.814 25.148 193.814H29.529V221.064H12.063C8.715 221.064 6 223.781 6 227.128V320.163C6 321.628 6.531 323.042 7.493 324.147L31.621 351.821C25.434 349.786 20.143 346.667 16.598 342.673C14.378 340.167 10.547 339.941 8.04 342.163C5.536 344.384 5.308 348.218 7.528 350.718C16.038 360.304 30.533 366.105 46.526 366.488C46.763 366.521 47 366.566 47.239 366.566C47.301 366.566 47.364 366.529 47.43 366.529C47.689 366.529 47.939 366.566 48.198 366.566C69.094 366.566 79.136 358.531 87.991 351.445C96.374 344.74 103.609 338.949 120.346 338.949C137.05 338.949 144.26 344.734 152.606 351.435C158.379 356.07 164.35 360.867 173.429 363.855C176.612 364.898 180.037 363.171 181.084 359.994C182.131 356.817 180.401 353.387 177.221 352.342C170.228 350.037 165.355 346.125 160.197 341.983C151.346 334.878 141.316 326.821 120.346 326.821C99.357 326.821 89.294 334.878 80.416 341.977C72.37 348.418 65.291 353.956 49.924 354.358L18.126 317.897V266.442H261.761C265.109 266.442 267.823 263.733 267.823 260.378C267.823 257.03 265.109 254.317 261.761 254.317H18.127V233.192H246.636C247.733 233.192 248.81 232.893 249.751 232.327L294.17 205.7H455.046L449.302 239.124L433.352 261.181C432.057 260.349 430.785 259.492 429.54 258.593C427.418 257.056 424.553 257.056 422.43 258.593C403.207 272.511 377.068 277.656 353.415 272.126C351.622 271.708 349.72 272.126 348.268 273.282C346.82 274.432 345.973 276.178 345.973 278.028V353.614C343.071 354.106 340.041 354.44 336.67 354.44C320.025 354.44 312.807 348.665 304.451 341.977C295.574 334.877 285.511 326.821 264.523 326.821C243.619 326.821 233.57 334.868 224.699 341.966C221.036 344.902 217.575 347.671 213.433 349.851C210.473 351.419 209.34 355.083 210.901 358.046C212.464 361.009 216.136 362.144 219.092 360.577C224.248 357.86 228.331 354.595 232.278 351.431C240.646 344.736 247.875 338.951 264.523 338.951C281.256 338.951 288.494 344.742 296.875 351.447C305.733 358.533 315.771 366.568 336.67 366.568C339.944 366.568 343.025 366.361 345.973 365.964V366.743C345.973 377.134 349.321 386.848 354.81 395.628C350.275 397.651 344.401 399.22 335.951 399.22C319.29 399.22 312.092 393.431 303.753 386.734C297.961 382.074 291.969 377.254 282.837 374.298C279.662 373.282 276.233 375.017 275.204 378.198C274.171 381.389 275.917 384.8 279.102 385.837C286.11 388.105 290.991 392.032 296.16 396.179C305.002 403.288 315.023 411.341 335.951 411.341C348.034 411.341 356.222 408.618 362.203 405.548C378.71 424.376 404.67 437.38 424.95 440.903C425.294 440.964 425.638 440.995 425.986 440.995C426.334 440.995 426.679 440.964 427.022 440.903C459.3 435.301 505.999 405.667 505.999 366.743V278.028C505.998 276.178 505.152 274.432 503.704 273.281ZM223.525 83.1309H349.696V146.035H223.525V83.1309ZM35.591 181.686H31.21V161.762H35.591C38.941 161.762 41.655 159.045 41.655 155.701V131.27H156.057V221.065H41.655V187.75C41.655 184.4 38.94 181.686 35.591 181.686ZM244.958 221.064H168.185V158.162H280.546V199.734L244.958 221.064ZM292.674 193.576V158.162H355.759H418.842V193.576H391.233V178.387C391.233 175.041 388.518 172.324 385.17 172.324C381.821 172.324 379.106 175.041 379.106 178.387V193.576H361.823V178.387C361.823 175.041 359.106 172.324 355.76 172.324C352.414 172.324 349.697 175.041 349.697 178.387V193.576H332.409V178.387C332.409 175.041 329.694 172.324 326.346 172.324C322.997 172.324 320.283 175.041 320.283 178.387V193.576H292.674ZM493.872 366.742C493.872 397.045 454.044 423.426 425.985 428.762C397.924 423.426 358.098 397.045 358.098 366.742V285.359C381.627 288.963 406.468 283.623 425.985 270.857C427.624 271.931 429.345 272.871 431.051 273.837C431.181 273.95 431.292 274.069 431.436 274.175C431.903 274.515 432.41 274.747 432.927 274.935C451.205 284.71 472.998 288.558 493.871 285.359L493.872 366.742ZM472.27 304.748C474.883 306.838 475.306 310.652 473.214 313.266L415.352 385.537C414.272 386.883 412.674 387.701 410.954 387.801C410.843 387.807 410.729 387.813 410.617 387.813C409.016 387.813 407.471 387.174 406.333 386.038L379.082 358.784C376.713 356.417 376.713 352.573 379.082 350.214C381.447 347.845 385.289 347.845 387.654 350.214L410.119 372.677L463.748 305.689C465.841 303.074 469.663 302.65 472.27 304.748ZM330.008 235.295C330.008 224.537 321.258 215.781 310.502 215.781C299.743 215.781 290.991 224.537 290.991 235.295C290.991 246.049 299.743 254.799 310.502 254.799C321.258 254.799 330.008 246.049 330.008 235.295ZM303.119 235.295C303.119 231.221 306.43 227.908 310.502 227.908C314.571 227.908 317.883 231.221 317.883 235.295C317.883 239.359 314.571 242.674 310.502 242.674C306.43 242.674 303.119 239.359 303.119 235.295ZM376.827 235.295C376.827 224.537 368.076 215.781 357.32 215.781C346.563 215.781 337.811 224.537 337.811 235.295C337.811 246.049 346.563 254.799 357.32 254.799C368.076 254.799 376.827 246.049 376.827 235.295ZM349.937 235.295C349.937 231.287 353.319 227.908 357.321 227.908C361.393 227.908 364.704 231.221 364.704 235.295C364.704 239.359 361.393 242.674 357.321 242.674C353.318 242.674 349.937 239.295 349.937 235.295ZM423.766 235.295C423.766 224.537 415.013 215.781 404.256 215.781C393.499 215.781 384.747 224.537 384.747 235.295C384.747 246.049 393.499 254.799 404.256 254.799C415.013 254.799 423.766 246.049 423.766 235.295ZM396.874 235.295C396.874 231.221 400.184 227.908 404.256 227.908C408.258 227.908 411.64 231.287 411.64 235.295C411.64 239.295 408.258 242.674 404.256 242.674C400.184 242.674 396.874 239.359 396.874 235.295ZM194.114 178.387V200.717C194.114 204.063 191.399 206.78 188.051 206.78C184.705 206.78 181.989 204.063 181.989 200.717V178.387C181.989 175.041 184.705 172.324 188.051 172.324C191.399 172.324 194.114 175.041 194.114 178.387ZM223.525 178.387V200.717C223.525 204.063 220.81 206.78 217.462 206.78C214.114 206.78 211.399 204.063 211.399 200.717V178.387C211.399 175.041 214.114 172.324 217.462 172.324C220.81 172.324 223.525 175.041 223.525 178.387ZM252.938 178.387V200.717C252.938 204.063 250.221 206.78 246.875 206.78C243.526 206.78 240.811 204.063 240.811 200.717V178.387C240.811 175.041 243.527 172.324 246.875 172.324C250.222 172.324 252.938 175.041 252.938 178.387ZM263.262 103.357V125.685C263.262 129.033 260.546 131.749 257.199 131.749C253.852 131.749 251.136 129.032 251.136 125.685V103.357C251.136 100.003 253.852 97.2939 257.199 97.2939C260.546 97.2939 263.262 100.004 263.262 103.357ZM286.61 131.75C283.262 131.75 280.546 129.033 280.546 125.686V103.358C280.546 100.004 283.263 97.2949 286.61 97.2949C289.959 97.2949 292.673 100.004 292.673 103.358V125.686C292.674 129.033 289.959 131.75 286.61 131.75ZM309.96 125.686V103.358C309.96 100.004 312.674 97.2949 316.023 97.2949C319.371 97.2949 322.085 100.004 322.085 103.358V125.686C322.085 129.034 319.371 131.75 316.023 131.75C312.674 131.75 309.96 129.033 309.96 125.686ZM245.413 380.156C246.955 383.131 245.798 386.787 242.825 388.332C238.661 390.496 235.176 393.281 231.482 396.234C222.628 403.316 212.594 411.339 191.773 411.339C170.786 411.339 160.723 403.288 151.845 396.191C143.491 389.502 136.27 383.728 119.625 383.728C102.89 383.728 95.651 389.519 87.271 396.22C78.415 403.31 68.375 411.339 47.474 411.339C35.498 411.339 26.108 408.835 17.036 403.23C14.187 401.47 13.307 397.732 15.066 394.888C16.829 392.038 20.561 391.165 23.413 392.915C28.45 396.03 35.25 399.218 47.475 399.218C64.121 399.218 71.34 393.443 79.697 386.757C88.575 379.653 98.637 371.601 119.626 371.601C140.524 371.601 150.564 379.634 159.42 386.722C167.802 393.429 175.038 399.218 191.774 399.218C208.341 399.218 215.557 393.448 223.912 386.767C227.896 383.579 232.016 380.281 237.24 377.568C240.202 376.033 243.87 377.182 245.413 380.156Z" fill="#1B4F72"/>
</svg>
