<svg width="512" height="512" viewBox="0 0 512 512" fill="none" xmlns="http://www.w3.org/2000/svg">
<path fill-rule="evenodd" clip-rule="evenodd" d="M35.9149 87.2342H60.0229C61.6139 87.2342 63.0649 86.5792 64.1199 85.5232C65.1749 84.4682 65.8309 83.0162 65.8309 81.4262V50.9872L35.9149 87.2342ZM243.062 386.004H268.386V295.771H243.062V386.004ZM171.187 386.004H196.511V273.933H171.187V386.004ZM99.3129 386.004H124.637V317.937H99.3129V386.004ZM299.838 386.004C303.366 386.004 306.226 388.864 306.226 392.392C306.226 395.92 303.366 398.78 299.838 398.78H67.8609C64.3329 398.78 61.4729 395.92 61.4729 392.392C61.4729 388.864 64.3329 386.004 67.8609 386.004H86.5369V311.549C86.5369 308.021 89.3969 305.161 92.9249 305.161H131.025C134.553 305.161 137.413 308.021 137.413 311.549V386.004H158.411V267.545C158.411 264.017 161.271 261.157 164.799 261.157H202.899C206.427 261.157 209.287 264.017 209.287 267.545V386.004H230.286V289.383C230.286 285.855 233.146 282.995 236.674 282.995H274.774C278.302 282.995 281.162 285.855 281.162 289.383V386.004H299.838ZM117.361 254.967C115.983 253.589 114.078 252.737 111.974 252.737C109.87 252.737 107.966 253.59 106.588 254.967C105.21 256.345 104.358 258.249 104.358 260.353C104.358 262.457 105.211 264.362 106.588 265.739C107.966 267.117 109.871 267.97 111.974 267.97C114.077 267.97 115.983 267.117 117.361 265.74C118.739 264.363 119.591 262.457 119.591 260.353C119.591 258.249 118.738 256.344 117.361 254.967ZM189.236 197.813C187.858 196.435 185.953 195.583 183.849 195.583C181.745 195.583 179.84 196.436 178.463 197.813C177.085 199.191 176.233 201.095 176.233 203.199C176.233 205.303 177.086 207.208 178.463 208.585C179.841 209.963 181.745 210.815 183.849 210.815C185.953 210.815 187.858 209.962 189.236 208.585C190.614 207.207 191.466 205.303 191.466 203.199C191.466 201.095 190.613 199.19 189.236 197.813ZM261.11 240.962C259.732 239.584 257.828 238.732 255.724 238.732C253.62 238.732 251.715 239.585 250.337 240.962C248.959 242.339 248.107 244.245 248.107 246.349C248.107 248.453 248.96 250.358 250.337 251.735C251.715 253.113 253.62 253.965 255.724 253.965C257.828 253.965 259.732 253.112 261.11 251.735C262.488 250.358 263.34 248.452 263.34 246.349C263.34 244.246 262.487 242.34 261.11 240.962ZM322.67 99.6512C337.83 88.9032 357.076 83.9352 376.812 87.2962C396.579 90.6622 413.106 101.715 423.846 116.864C434.593 132.022 439.56 151.265 436.202 170.999V171.007C432.835 190.773 421.782 207.3 406.633 218.041C391.475 228.787 372.233 233.755 352.499 230.397H352.491C332.724 227.03 316.197 215.977 305.457 200.828C294.709 185.668 289.742 166.422 293.102 146.685C296.468 126.918 307.521 110.391 322.67 99.6512ZM374.717 99.8722C358.412 97.0962 342.539 101.181 330.057 110.031C317.564 118.888 308.451 132.505 305.679 148.781C302.903 165.086 306.988 180.96 315.837 193.442C324.631 205.845 338.117 214.916 354.238 217.758C354.495 217.786 354.747 217.829 354.993 217.886C371.155 220.527 386.869 216.437 399.247 207.661C411.65 198.867 420.721 185.381 423.563 169.26C423.591 169.003 423.634 168.751 423.691 168.505C426.332 152.343 422.242 136.629 413.466 124.25C404.608 111.757 390.993 102.643 374.717 99.8722ZM434.94 269.843L420.571 278.15C420.021 278.468 419.52 278.822 419.071 279.205C418.586 279.619 418.154 280.062 417.776 280.526L417.771 280.532C416.467 282.14 415.692 284.128 415.525 286.199C415.364 288.204 415.776 290.259 416.835 292.09L449.842 349.194C451.241 351.615 453.515 353.247 456.05 353.925C458.586 354.603 461.368 354.326 463.783 352.931L478.153 344.625C480.574 343.226 482.206 340.952 482.884 338.417C483.562 335.881 483.285 333.098 481.889 330.683L448.881 273.579C447.795 271.701 446.188 270.298 444.344 269.448C442.422 268.562 440.259 268.266 438.168 268.646L438.034 268.673C437.573 268.764 437.063 268.912 436.506 269.117C435.953 269.32 435.429 269.563 434.941 269.845L434.94 269.843ZM377.408 258.983V464.782C377.408 466.372 376.753 467.823 375.697 468.878C374.642 469.933 373.191 470.589 371.6 470.589H73.0769C71.4859 470.589 70.0349 469.934 68.9799 468.878C67.9249 467.822 67.2689 466.372 67.2689 464.782V449.919H333.111C338.228 449.919 342.876 447.83 346.241 444.465C349.606 441.1 351.695 436.452 351.695 431.336V258.94C360.17 260.042 368.812 260.076 377.408 258.983ZM267.154 132.776C260.484 157.721 263.333 185.219 277.284 209.354L277.484 209.704L277.488 209.701C278.532 211.491 279.623 213.235 280.758 214.936L265.808 228.62C262.834 226.924 259.392 225.956 255.725 225.956C250.628 225.956 245.968 227.827 242.393 230.918L203.741 207.714C204.07 206.262 204.243 204.751 204.243 203.199C204.243 197.568 201.96 192.47 198.27 188.78C194.579 185.09 189.481 182.807 183.85 182.807C178.219 182.807 173.121 185.09 169.431 188.78C165.741 192.471 163.458 197.569 163.458 203.199C163.458 205.684 163.903 208.066 164.717 210.268L123.17 243.306C119.956 241.192 116.11 239.961 111.976 239.961C106.346 239.961 101.247 242.244 97.5569 245.934C97.4499 246.04 97.3449 246.149 97.2409 246.258L70.7209 233.617C67.5379 232.101 63.7279 233.453 62.2119 236.636C60.6959 239.819 62.0479 243.629 65.2309 245.145L91.7439 257.783C91.6379 258.625 91.5829 259.483 91.5829 260.354C91.5829 265.985 93.8659 271.083 97.5559 274.773C101.246 278.464 106.344 280.747 111.975 280.747C117.606 280.747 122.704 278.464 126.395 274.774C130.085 271.083 132.368 265.985 132.368 260.354C132.368 257.869 131.922 255.487 131.108 253.284L172.655 220.246C175.869 222.361 179.716 223.592 183.85 223.592C188.946 223.592 193.606 221.721 197.181 218.63L235.833 241.834C235.505 243.286 235.331 244.797 235.331 246.348C235.331 251.979 237.614 257.077 241.304 260.767C244.995 264.457 250.093 266.74 255.724 266.74C261.355 266.74 266.453 264.457 270.143 260.767C273.833 257.076 276.116 251.978 276.116 246.348C276.116 243.389 275.485 240.577 274.351 238.038L288.497 225.09C301.95 240.594 319.523 251.249 338.581 256.345L338.918 256.433V431.335C338.918 432.925 338.263 434.376 337.207 435.431C336.152 436.486 334.701 437.142 333.11 437.142H34.5879C32.9969 437.142 31.5459 436.487 30.4909 435.431C29.4359 434.376 28.7799 432.925 28.7799 431.335V100.01H60.0239C65.1419 100.01 69.7889 97.9212 73.1539 94.5562C76.5189 91.1912 78.6079 86.5442 78.6079 81.4262V41.4112H333.112C334.702 41.4112 336.153 42.0672 337.208 43.1222C338.264 44.1782 338.919 45.6292 338.919 47.2202V61.2382C330.437 63.4802 322.108 66.8752 314.145 71.4772C290.016 85.4252 273.825 107.829 267.154 132.775V132.776ZM320.532 82.5062C299.455 94.6892 285.31 114.267 279.48 136.07C273.656 157.85 276.128 181.844 288.274 202.898L288.313 202.967C300.496 224.044 320.073 238.189 341.876 244.019C343.347 244.412 344.829 244.767 346.319 245.084C346.529 245.117 346.735 245.161 346.937 245.214C358.424 247.575 370.402 247.663 382.148 245.287C382.38 245.225 382.618 245.176 382.86 245.14C391.721 243.27 400.44 239.993 408.707 235.225L408.775 235.186C429.852 223.003 443.997 203.425 449.827 181.623C455.658 159.819 453.174 135.797 440.994 114.726C428.811 93.6492 409.233 79.5042 387.43 73.6742C374.368 70.1812 360.511 69.6732 346.968 72.4452C346.731 72.5092 346.49 72.5592 346.243 72.5952C337.428 74.4772 328.755 77.7532 320.532 82.5062ZM405.366 276.332L392.57 255.85C391.776 256.079 390.981 256.298 390.184 256.507V464.782C390.184 469.899 388.095 474.546 384.73 477.911C381.365 481.276 376.718 483.365 371.6 483.365H73.0769C67.9599 483.365 63.3119 481.277 59.9469 477.911C56.5819 474.546 54.4929 469.899 54.4929 464.782V449.919H34.5879C29.4709 449.919 24.8229 447.831 21.4579 444.465C18.0929 441.1 16.0039 436.453 16.0039 431.336V93.6222L16.0059 93.4602V93.4582V93.4512L16.0119 93.2962V93.2932L16.0219 93.1362V93.1312C16.0309 93.0262 16.0409 92.9222 16.0539 92.8192V92.8092C16.1429 92.1172 16.3419 91.4602 16.6329 90.8562L16.6349 90.8512C16.7239 90.6662 16.8219 90.4852 16.9289 90.3112C17.1159 90.0032 17.3269 89.7132 17.5609 89.4432C17.7949 89.1732 17.5729 89.4292 17.5729 89.4292C17.6359 89.3572 17.7009 89.2852 17.7669 89.2162C17.8329 89.1472 17.7769 89.2062 17.7769 89.2062L17.8289 89.1522L65.8389 30.9832C67.0959 29.4542 68.9179 28.6622 70.7549 28.6612V28.6372H333.111C338.229 28.6372 342.876 30.7272 346.24 34.0912C349.606 37.4572 351.694 42.1062 351.694 47.2222V58.7382C364.846 57.0392 378.111 57.9762 390.723 61.3492C415.67 68.0192 438.074 84.2102 452.021 108.34C465.972 132.476 468.822 159.974 462.151 184.919C456.91 204.521 445.788 222.551 429.558 236.143L440.755 255.764C443.847 255.863 446.889 256.582 449.683 257.871C453.835 259.786 457.457 262.95 459.909 267.192L492.917 324.296C496.084 329.775 496.726 336.037 495.209 341.711C493.691 347.386 490.013 352.49 484.54 355.654L470.17 363.96C464.691 367.127 458.429 367.769 452.755 366.252C447.08 364.735 441.976 361.056 438.812 355.583L405.805 298.479C403.387 294.296 402.439 289.669 402.798 285.202C403.046 282.116 403.92 279.093 405.365 276.333L405.366 276.332ZM404.844 251.425C408.338 249.903 411.782 248.168 415.161 246.216L415.511 246.016L415.508 246.012C416.77 245.276 418.008 244.516 419.225 243.735L428.009 259.128L414.526 266.922L404.844 251.425ZM113.266 140.02H181.452C184.98 140.02 187.84 137.16 187.84 133.632C187.84 130.104 184.98 127.244 181.452 127.244H113.266C109.738 127.244 106.878 130.104 106.878 133.632C106.878 137.16 109.738 140.02 113.266 140.02ZM113.266 110.607H169.456C172.984 110.607 175.844 107.747 175.844 104.219C175.844 100.691 172.984 97.8312 169.456 97.8312H113.266C109.738 97.8312 106.878 100.691 106.878 104.219C106.878 107.747 109.738 110.607 113.266 110.607ZM330.987 165.104L355.248 184.182C358.018 186.359 362.029 185.879 364.206 183.109L364.247 183.056L399.19 142.694C401.491 140.035 401.201 136.012 398.541 133.711C395.881 131.41 391.859 131.7 389.558 134.36L358.359 170.397L338.872 155.073C336.102 152.896 332.091 153.376 329.914 156.146C327.737 158.916 328.217 162.927 330.987 165.104Z" fill="#1B4F72"/>
</svg>
