<svg width="500" height="500" viewBox="0 0 500 500" fill="none" xmlns="http://www.w3.org/2000/svg">
<path fill-rule="evenodd" clip-rule="evenodd" d="M351.841 261.766C330.003 239.938 294.471 239.938 272.633 261.766C250.8 283.647 250.8 319.157 272.633 340.985C294.471 362.813 330.003 362.813 351.841 340.985C373.674 319.157 373.674 283.647 351.841 261.766ZM360.78 349.929C333.962 376.693 290.465 376.68 263.705 349.929C236.942 323.15 236.942 279.601 263.705 252.875C290.463 226.096 334.012 226.096 360.78 252.875C387.543 279.601 387.543 323.15 360.78 349.929ZM353.758 288.811C354.77 292.165 352.885 295.679 349.542 296.69C346.156 297.647 342.672 295.831 341.663 292.484C338.49 281.958 329.947 273.942 319.228 271.455C315.837 270.656 313.723 267.249 314.511 263.842C315.294 260.488 318.69 258.359 322.092 259.157C337.191 262.664 349.314 274 353.758 288.811ZM188.884 178.661H315.245C318.732 178.661 321.564 175.839 321.564 172.326C321.564 168.865 318.732 166.044 315.245 166.044H188.884C185.397 166.044 182.565 168.866 182.565 172.326C182.564 175.839 185.397 178.661 188.884 178.661ZM439.189 418.127L404.749 383.735L394.559 393.904L428.994 428.349L439.189 418.127ZM391.004 301.375C391.004 344.899 355.751 380.168 312.238 380.168C268.741 380.168 233.472 344.887 233.472 301.375C233.472 257.842 268.716 222.636 312.238 222.636C355.778 222.636 391.004 257.828 391.004 301.375ZM182.564 233.177C182.564 236.637 185.396 239.459 188.883 239.459H245.012C232.245 253.301 224.547 270.177 221.912 287.64H188.883C185.396 287.64 182.564 290.462 182.564 293.975C182.564 297.435 185.396 300.31 188.883 300.31H220.895C220.551 328.751 233.334 356.246 257.092 374.258L218.409 401.037L128.575 338.908C107.413 324.268 95.7587 302.014 95.7587 276.3V146.558C140.255 145.227 183.405 129.628 218.415 102.211C253.435 129.629 296.579 145.228 341.055 146.558V214.65C313.93 205.706 283.409 209.752 259.361 226.841H188.884C185.397 226.842 182.564 229.663 182.564 233.177ZM295.451 391.188L218.41 444.48L108.244 368.296C77.1527 346.788 60.0257 314.099 60.0257 276.3V110.942H89.4447C129.608 110.942 168.77 96.8868 199.712 71.3858L218.415 55.9998L237.118 71.3858C268.071 96.8868 307.228 110.942 347.375 110.942H376.789V236.691C369.831 229.717 362.026 224.18 353.694 219.921V140.33C353.694 136.869 350.872 133.995 347.374 133.995C301.876 133.995 257.508 118.13 222.434 89.2218C220.102 87.3048 216.732 87.3048 214.4 89.2218C179.326 118.131 134.947 133.995 89.4437 133.995C85.9567 133.995 83.1247 136.87 83.1247 140.33V276.3C83.1247 306.273 96.7107 332.2 121.387 349.29L214.81 413.921C216.973 415.411 219.841 415.41 222.008 413.921L268.581 381.712C277.084 386.29 286.156 389.485 295.451 391.188ZM452.611 418.127C452.611 421.002 451.498 423.717 449.475 425.74L436.575 438.624C432.379 442.807 425.613 442.81 421.413 438.624L384.274 401.464C380.095 397.311 380.095 390.497 384.274 386.344L386.254 384.321L372.242 370.32C355.978 384.535 335.843 391.935 315.517 392.68L222.009 457.365C219.842 458.854 216.974 458.855 214.811 457.365L101.062 378.679C66.7267 354.922 47.3867 318.049 47.3867 276.3V104.607C47.3867 101.093 50.2187 98.2718 53.7057 98.2718H89.4447C126.685 98.2718 162.994 85.2818 191.689 61.6438L214.401 42.9568C216.733 41.0398 220.103 41.0398 222.435 42.9568L245.146 61.6438C273.842 85.2818 310.145 98.2718 347.374 98.2718H383.108C386.6 98.2718 389.427 101.094 389.427 104.607V252.45C410.749 286.043 408.002 330.604 381.18 361.376L395.187 375.431C397.936 372.623 400.049 370.267 404.749 370.267C407.613 370.267 410.313 371.385 412.336 373.408L449.475 410.568C451.498 412.59 452.611 415.252 452.611 418.127ZM159.278 276.939L136.593 297.596L126.036 287.002C123.576 284.553 119.578 284.553 117.108 287.002C114.638 289.504 114.638 293.497 117.108 295.946L131.919 310.799C134.255 313.134 138.14 313.24 140.629 310.959L167.781 286.31C170.368 283.967 170.549 279.974 168.212 277.366C165.858 274.81 161.865 274.597 159.278 276.939ZM159.278 155.343L136.593 175.946L126.036 165.405C123.576 162.956 119.578 162.956 117.108 165.405C114.638 167.854 114.638 171.847 117.108 174.349L131.919 189.149C134.331 191.555 138.106 191.621 140.629 189.362L167.781 164.659C170.368 162.317 170.549 158.324 168.212 155.768C165.858 153.16 161.865 152.947 159.278 155.343ZM168.211 216.567C165.858 213.958 161.865 213.799 159.278 216.141L136.593 236.744L126.036 226.203C123.576 223.754 119.578 223.754 117.108 226.203C114.638 228.705 114.638 232.698 117.108 235.147L131.919 249.947C134.313 252.335 138.127 252.452 140.629 250.16L167.781 225.511C170.368 223.115 170.549 219.122 168.211 216.567Z" fill="#1B4F72"/>
</svg>
