<?xml version="1.0" encoding="UTF-8"?>
<svg width="64px" height="64px" viewBox="0 0 64 64" version="1.1" xmlns="http://www.w3.org/2000/svg" xmlns:xlink="http://www.w3.org/1999/xlink">
    <title>expert leadership</title>
    <g id="expert-leadership" stroke="none" stroke-width="1" fill="none" fill-rule="evenodd">
        <g id="Group-32-Copy">
            <rect id="Rectangle" x="0" y="0" width="64" height="64"></rect>
            <g id="Group-19" transform="translate(6, 5)">
                <g id="Group" fill-rule="nonzero">
                    <path d="M50.9038782,14.871577 C52.2555896,13.2469309 53,11.185293 53,9.06616872 C53,6.60403444 52.0326232,4.30064366 50.2763616,2.5799882 C48.5204568,0.85992908 46.2032713,-0.0546051981 43.7430305,0.00252337766 C38.8806987,0.117257595 34.9230752,4.18149659 34.9209347,9.06211366 C34.9202212,11.1850545 35.6660586,13.2499126 37.0209807,14.8763476 C38.6170632,16.7918843 39.495967,19.2765599 39.495967,21.8727495 L39.495967,22.5788063 L38.7629724,22.5788063 L38.7629724,24.0100023 L39.495967,24.0100023 L39.495967,24.7499307 L38.7629724,24.7499307 L38.7629724,26.1811267 L39.495967,26.1811267 L39.495967,28.2852234 L43.2938871,28.2852234 L43.2938871,30.3596229 C43.2938871,32.280288 41.7358575,33.8427963 39.8209628,33.8427963 C37.9060681,33.8427963 36.3480385,32.2801687 36.3480385,30.3596229 L36.3480385,26.199613 C36.3480385,22.9604585 33.7207216,20.3252688 30.4909793,20.3252688 L30.4909793,20.5364895 C30.4529263,20.439526 30.4136842,20.342801 30.3730152,20.2466723 C30.2884663,20.047736 30.1927394,19.8409282 30.0898776,19.6344782 C29.5294293,18.4984663 28.7898944,17.4655006 27.8916075,16.5645626 C25.6946454,14.361117 22.7744399,13.1477013 19.6689642,13.1477013 C15.2198634,13.1477013 11.226922,15.6329733 9.24923995,19.6318543 C9.14554572,19.8397355 9.04993774,20.0466626 8.96467539,20.2471493 C8.35178541,21.6926574 8.04094055,23.2283307 8.04094055,24.8115914 L8.04094055,26.1299615 L9.46792537,26.1299615 L9.46792537,24.8114721 C9.46792537,23.4219 9.74047948,22.0746674 10.2776203,20.8077011 C10.3513479,20.6341686 10.4347076,20.4539572 10.5265103,20.26981 C12.2625562,16.7595631 15.7656851,14.5788974 19.6688453,14.5788974 C22.3933161,14.5788974 24.9551106,15.6434687 26.8823725,17.5765375 C27.6706627,18.3671541 28.319584,19.2731012 28.8122505,20.2717182 C28.9035776,20.4549113 28.9869373,20.6351227 29.0598324,20.8072241 C29.59733,22.0746674 29.8697652,23.4219 29.8697652,24.8114721 L29.8697652,26.1298422 L31.29675,26.1298422 L31.29675,24.8114721 C31.29675,23.7752862 31.1627324,22.759614 30.8988591,21.7760245 C33.1509979,21.9833094 34.9210536,23.887635 34.9210536,26.199613 L34.9210536,30.3596229 C34.9210536,33.0694733 37.1190859,35.2739923 39.8209628,35.2739923 C42.5228396,35.2739923 44.7208719,33.0694733 44.7208719,30.3596229 L44.7208719,28.2852234 L48.4348377,28.2852234 L48.4348377,26.1811267 L49.2519055,26.1811267 L49.2519055,24.7499307 L48.4348377,24.7499307 L48.4348377,24.0100023 L49.2519055,24.0100023 L49.2519055,22.5788063 L48.4348377,22.5788063 L48.4348377,21.8607036 C48.4347188,19.2674956 49.3117199,16.7853246 50.9038782,14.871577 Z M38.1160727,13.9587124 C36.9751983,12.5894156 36.347206,10.8507509 36.3479189,9.06282926 C36.3498222,4.95267273 39.6821885,1.53008663 43.7766836,1.4334809 C45.8462873,1.38291197 47.800543,2.15551931 49.279256,3.60388971 C50.7583258,5.05285645 51.5730152,6.9928427 51.5730152,9.06616872 C51.5730152,10.8507509 50.9462121,12.586911 49.8083106,13.9545381 C48.303793,15.762735 47.3649559,18.0138872 47.0925207,20.4076818 L45.8821997,20.4076818 L45.8821997,19.0111923 L44.4552149,19.0111923 L44.4552149,20.4076818 L43.4656009,20.4076818 L43.4656009,19.0111923 L42.0386161,19.0111923 L42.0386161,20.4076818 L40.8367381,20.4076818 C40.5621625,18.0153184 39.6217795,15.7659552 38.1160727,13.9587124 Z M47.007734,26.8540274 L40.9228329,26.8540274 L40.9228329,26.181246 L47.007734,26.181246 L47.007734,26.8540274 Z M47.007734,24.7500499 L40.9228329,24.7500499 L40.9228329,24.0101216 L47.007734,24.0101216 L47.007734,24.7500499 Z M40.9228329,22.5789255 L40.9228329,21.8728688 C40.9228329,21.8615385 40.9221194,21.8503275 40.9221194,21.8389972 L47.0082097,21.8389972 C47.0082097,21.8463917 47.007734,21.8535477 47.007734,21.8609422 L47.007734,22.5790448 L40.9228329,22.5790448 L40.9228329,22.5789255 Z" id="Shape" fill="#F5A900"></path>
                    <rect id="Rectangle" fill="#000000" x="18.9882924" y="31.2709369" width="1.42698482" height="2.15872071"></rect>
                    <rect id="Rectangle" fill="#F5A900" x="18.955234" y="2.17173953" width="1.42698482" height="7.47656818"></rect>
                    <polygon id="Rectangle" fill="#F5A900" transform="translate(29.1644, 8.5536) rotate(-45) translate(-29.1644, -8.5536)" points="25.4327191 7.84456643 32.8982159 7.8335668 32.8961103 9.26264353 25.4306135 9.27364316"></polygon>
                    <polygon id="Rectangle" fill="#F5A900" transform="translate(10.1728, 8.5534) rotate(135) translate(-10.1728, -8.5534)" points="9.46380304 4.82171031 10.8928798 4.81960471 10.8818801 12.2851016 9.45280341 12.2872072"></polygon>
                    <path d="M40.4566845,14.2175204 L44.0071417,12.3453967 L47.5575988,14.2175204 L46.8796621,10.2522724 L49.7519447,7.44414652 L45.7824297,6.86570478 L44.0070227,3.25801733 L42.2318536,6.86570478 L38.2623386,7.44414652 L41.1346212,10.2522724 L40.4566845,14.2175204 Z M43.1797283,8.17369871 L44.0072606,6.49180482 L44.8350307,8.17369871 L46.6857111,8.4433599 L45.3464858,9.75254649 L45.662563,11.6011747 L44.0072606,10.7283837 L42.3519582,11.6011747 L42.6682731,9.75254649 L41.3290479,8.4433599 L43.1797283,8.17369871 Z" id="Shape" fill="#F5A900"></path>
                    <path d="M0.31215293,47.0899469 C0.1050023,48.2401515 0,49.41409 0,50.5794414 L0,54 L39.3372149,54 L39.3372149,50.5317349 C39.3372149,49.3593468 39.231737,48.180399 39.023635,47.0282862 C38.7758153,45.6508793 38.1198779,44.4020415 37.1270533,43.4173786 C36.6908716,42.9839647 36.1929728,42.6100647 35.6473889,42.3064126 C34.9855058,41.9381182 34.2686837,41.6858699 33.5164249,41.5562274 L24.7895803,39.751847 L24.7895803,38.3349629 C26.8927181,36.9040053 28.3705987,34.6179082 28.7280584,31.979379 C28.7870405,31.9837918 28.8462603,31.9866542 28.9059559,31.9866542 C30.2091498,31.9866542 31.2693995,30.9237526 31.2693995,29.6171899 C31.2693995,28.3106272 30.2091498,27.2477256 28.9059559,27.2477256 C28.8632652,27.2477256 28.8206935,27.2504687 28.7782407,27.252854 C28.6523093,26.4057052 28.1858042,25.6579053 27.4755225,25.1969409 L27.4752847,25.1969409 C26.3986246,24.4981594 25.5718058,22.3972829 25.218746,21.5001615 C25.0152818,20.9831419 24.5686355,20.6059025 24.0242408,20.4912875 C23.4798461,20.3765533 22.91916,20.5414987 22.5251932,20.9330501 C19.0717711,24.363627 14.23786,25.1643812 12.3198735,25.3494825 C11.3231246,25.4457305 10.5670604,26.2556682 10.5275805,27.2490375 C10.5177105,27.2489182 10.5078406,27.2478448 10.4979706,27.2478448 C9.19465778,27.2478448 8.13428914,28.3107464 8.13428914,29.6173092 C8.13428914,30.9238719 9.19465778,31.9867735 10.4979706,31.9867735 C10.5354289,31.9867735 10.5726495,31.9840304 10.6099889,31.9822414 C10.9705404,34.6392569 12.468161,36.9383541 14.5955575,38.3664492 L14.5955575,39.7560213 L5.83089781,41.5562274 C4.33149351,41.8136041 2.94803173,42.5821564 1.93499142,43.7203151 C1.10282144,44.6517852 0.545464948,45.7955494 0.322260739,47.0329376 L0.31215293,47.0899469 Z M29.8422957,29.6169514 C29.8422957,30.1343287 29.4221676,30.5552197 28.905837,30.5552197 C28.8746811,30.5552197 28.8442388,30.5508068 28.8136775,30.5477059 L28.8136775,28.6859583 C28.8443577,28.6829767 28.8748,28.6785638 28.905837,28.6785638 C29.4221676,28.6786831 29.8422957,29.099574 29.8422957,29.6169514 Z M19.6925095,43.9779304 L21.3044077,45.1414928 L21.3044077,47.4986727 L18.1780029,45.0711256 L19.6925095,43.9779304 Z M18.0815625,46.8059738 L21.3044077,49.3084201 L21.3044077,51.7604167 L18.0815625,49.2579704 L18.0815625,46.8059738 Z M18.0815625,51.0679564 L20.0145324,52.5688039 L18.0815625,52.5688039 L18.0815625,51.0679564 Z M22.7313925,46.1714769 L24.7895803,47.6571776 L24.7895803,41.2129789 L26.2256027,41.5098328 L26.2256027,52.5688039 L22.7313925,52.5688039 L22.7313925,46.1714769 L22.7313925,46.1714769 Z M23.3625955,44.8637215 L20.9745364,43.1399651 L23.3625955,41.6369707 L23.3625955,44.8637215 Z M16.0224234,44.8637215 L16.0224234,41.6438881 L18.3707648,43.168589 L16.0224234,44.8637215 Z M16.6545777,46.1707613 L16.6545777,52.5688039 L13.1746374,52.5688039 L13.1746374,41.5084016 L14.5954386,41.2166761 L14.5954386,47.6572969 L16.6545777,46.1707613 Z M33.2649188,42.9647628 C33.8622309,43.0666163 34.4308843,43.2660296 34.9550634,43.5578743 C35.3863696,43.7979575 35.779385,44.0926646 36.1230505,44.4344819 C36.906703,45.2116214 37.4241039,46.1964035 37.6194819,47.2828006 C37.8124816,48.3515462 37.9102301,49.4446222 37.9102301,50.5317349 L37.9102301,52.5688039 L27.6525875,52.5688039 L27.6525875,41.805017 L33.2401844,42.96035 L33.2649188,42.9647628 Z M9.56115505,29.6169514 C9.56115505,29.099574 9.98140208,28.6786831 10.4978517,28.6786831 C10.5065325,28.6786831 10.5149755,28.6805914 10.5236563,28.6808299 L10.5236563,30.5531921 C10.5149755,30.5534307 10.5065325,30.5553389 10.4978517,30.5553389 C9.98128316,30.5553389 9.56115505,30.1343287 9.56115505,29.6169514 Z M11.9506411,30.7394861 L11.9506411,27.3297808 C11.9506411,27.0405599 12.1681374,26.8015502 12.4563883,26.7737611 C14.5265866,26.57399 19.7497078,25.7040614 23.529196,21.9495571 C23.5798539,21.8993459 23.6364577,21.8864652 23.6810509,21.8864652 C23.7003152,21.8864652 23.7173201,21.8888505 23.7306387,21.8915936 C23.7746374,21.9008964 23.8539539,21.9305937 23.8912934,22.0254104 C24.3287831,23.137092 25.2390805,25.4503819 26.7001941,26.39843 L26.7001941,26.39843 C27.1236518,26.6732196 27.3866927,27.1786704 27.3866927,27.7172771 L27.3866927,30.7396054 C27.3866927,35.0079091 23.9244708,38.4803485 19.6687264,38.4803485 C15.412982,38.4803485 11.9506411,35.0077898 11.9506411,30.7394861 Z M19.6687264,39.9114253 C20.9828605,39.9114253 22.2320668,39.6298375 23.3625955,39.1271299 L23.3625955,39.947563 L19.641138,42.2885227 L16.0224234,39.9392144 L16.0224234,39.1487171 C17.1403471,39.6381861 18.3730242,39.9114253 19.6687264,39.9114253 Z M1.42698482,50.5794414 C1.42698482,49.4992462 1.52437654,48.4107023 1.71725732,47.3399292 L1.7271273,47.2828006 C1.9024086,46.3110185 2.34180101,45.4091264 2.99845186,44.6742073 C3.80041733,43.7733886 4.89527143,43.1663229 6.08145256,42.9651206 L11.7476525,41.801439 L11.7476525,52.5688039 L1.42698482,52.5688039 L1.42698482,50.5794414 L1.42698482,50.5794414 Z" id="Shape" fill="#000000"></path>
                </g>
                <path d="M30.4909793,20.5364895 C30.4529263,20.439526 30.4136842,20.342801 30.3730152,20.2466723 C30.2884663,20.047736 30.1927394,19.8409282 30.0898776,19.6344782 C29.5294293,18.4984663 28.7898944,17.4655006 27.8916075,16.5645626 C25.6946454,14.361117 22.7744399,13.1477013 19.6689642,13.1477013 C15.2198634,13.1477013 11.226922,15.6329733 9.24923995,19.6318543 C9.14554572,19.8397355 9.04993774,20.0466626 8.96467539,20.2471493 C8.35178541,21.6926574 8.04094055,23.2283307 8.04094055,24.8115914 L8.04094055,26.1299615 L9.46792537,26.1299615 L9.46792537,24.8114721 C9.46792537,23.4219 9.74047948,22.0746674 10.2776203,20.8077011 C10.3513479,20.6341686 10.4347076,20.4539572 10.5265103,20.26981 C12.2625562,16.7595631 15.7656851,14.5788974 19.6688453,14.5788974 C22.3933161,14.5788974 24.9551106,15.6434687 26.8823725,17.5765375 C27.6706627,18.3671541 28.319584,19.2731012 28.8122505,20.2717182 C28.9035776,20.4549113 28.9869373,20.6351227 29.0598324,20.8072241 C29.59733,22.0746674 29.8697652,23.4219 29.8697652,24.8114721 L29.8697652,26.1299615 L31.29675,26.1299615 L31.29675,24.8114721 C31.29675,23.7752862 31.1627324,22.759614 30.8988591,21.7760245 C30.6861919,21.03497 30.550232,20.6217916 30.4909793,20.5364895 Z" id="Path-Copy" fill="#000000"></path>
            </g>
        </g>
    </g>
</svg>