<?xml version="1.0" encoding="UTF-8"?>
<svg width="64px" height="64px" viewBox="0 0 64 64" version="1.1" xmlns="http://www.w3.org/2000/svg" xmlns:xlink="http://www.w3.org/1999/xlink">
    <title>ww1</title>
    <g id="ww1" stroke="none" stroke-width="1" fill="none" fill-rule="evenodd">
        <g id="Group-30">
            <rect id="Rectangle" x="0" y="0" width="64" height="64"></rect>
            <g id="Group" transform="translate(11, 10)" fill-rule="nonzero" stroke-width="0.7">
                <path d="M30.1145833,18.96625 C29.90125,18.96625 29.6883333,18.885 29.5254167,18.7220833 L27.1979167,16.3945833 C26.8725,16.0691667 26.8725,15.5416667 27.1979167,15.21625 C27.5229167,14.8908333 28.05125,14.8908333 28.37625,15.21625 L30.1145833,16.9541667 L34.1804167,12.88875 C34.5054167,12.5633333 35.03375,12.5633333 35.35875,12.88875 C35.6841667,13.2141667 35.6841667,13.7416667 35.35875,14.0670833 L30.70375,18.7220833 C30.54125,18.885 30.3279167,18.96625 30.1145833,18.96625 Z" id="Path" stroke="#F5A900" fill="#F5A900"></path>
                <path d="M39.1666667,3.33333333 L20.8333333,3.33333333 L20.8333333,0.833333333 C20.8333333,0.373333333 20.46,0 20,0 C19.54,0 19.1666667,0.373333333 19.1666667,0.833333333 L19.1666667,3.33333333 L0.833333333,3.33333333 C0.373333333,3.33333333 0,3.70666667 0,4.16666667 C0,4.62666667 0.373333333,5 0.833333333,5 L19.1666667,5 L19.1666667,39.1666667 C19.1666667,39.6266667 19.54,40 20,40 C20.46,40 20.8333333,39.6266667 20.8333333,39.1666667 L20.8333333,5 L39.1666667,5 C39.6266667,5 40,4.62666667 40,4.16666667 C40,3.70666667 39.6266667,3.33333333 39.1666667,3.33333333 Z" id="Path" stroke="#000000" fill="#000000"></path>
                <path d="M12.1666667,21.8333333 L3,21.8333333 C1.62125,21.8333333 0.5,20.7120833 0.5,19.3333333 L0.5,10.1666667 C0.5,8.78791667 1.62125,7.66666667 3,7.66666667 L12.1666667,7.66666667 C13.5454167,7.66666667 14.6666667,8.78791667 14.6666667,10.1666667 L14.6666667,19.3333333 C14.6666667,20.7120833 13.5454167,21.8333333 12.1666667,21.8333333 Z M3,9.33333333 C2.54041667,9.33333333 2.16666667,9.70708333 2.16666667,10.1666667 L2.16666667,19.3333333 C2.16666667,19.7929167 2.54041667,20.1666667 3,20.1666667 L12.1666667,20.1666667 C12.62625,20.1666667 13,19.7929167 13,19.3333333 L13,10.1666667 C13,9.70708333 12.62625,9.33333333 12.1666667,9.33333333 L3,9.33333333 Z" id="Shape" stroke="#000000" fill="#000000"></path>
                <path d="M12.1666667,39.6666667 L3,39.6666667 C1.62125,39.6666667 0.5,38.5454167 0.5,37.1666667 L0.5,28 C0.5,26.62125 1.62125,25.5 3,25.5 L12.1666667,25.5 C13.5454167,25.5 14.6666667,26.62125 14.6666667,28 L14.6666667,37.1666667 C14.6666667,38.5454167 13.5454167,39.6666667 12.1666667,39.6666667 Z M3,27.1666667 C2.54041667,27.1666667 2.16666667,27.5404167 2.16666667,28 L2.16666667,37.1666667 C2.16666667,37.62625 2.54041667,38 3,38 L12.1666667,38 C12.62625,38 13,37.62625 13,37.1666667 L13,28 C13,27.5404167 12.62625,27.1666667 12.1666667,27.1666667 L3,27.1666667 Z" id="Shape" stroke="#000000" fill="#000000"></path>
                <path d="M36,22.8333333 L26.8333333,22.8333333 C25.4545833,22.8333333 24.3333333,21.7120833 24.3333333,20.3333333 L24.3333333,11.1666667 C24.3333333,9.78791667 25.4545833,8.66666667 26.8333333,8.66666667 L36,8.66666667 C37.37875,8.66666667 38.5,9.78791667 38.5,11.1666667 L38.5,20.3333333 C38.5,21.7120833 37.37875,22.8333333 36,22.8333333 Z M26.8333333,10.3333333 C26.37375,10.3333333 26,10.7070833 26,11.1666667 L26,20.3333333 C26,20.7929167 26.37375,21.1666667 26.8333333,21.1666667 L36,21.1666667 C36.4595833,21.1666667 36.8333333,20.7929167 36.8333333,20.3333333 L36.8333333,11.1666667 C36.8333333,10.7070833 36.4595833,10.3333333 36,10.3333333 L26.8333333,10.3333333 Z" id="Shape" stroke="#F5A900" fill="#F5A900"></path>
            </g>
        </g>
    </g>
</svg>