<?xml version="1.0" encoding="UTF-8"?>
<svg width="64px" height="64px" viewBox="0 0 64 64" version="1.1" xmlns="http://www.w3.org/2000/svg" xmlns:xlink="http://www.w3.org/1999/xlink">
    <title>ww2</title>
    <g id="ww2" stroke="none" stroke-width="1" fill="none" fill-rule="evenodd">
        <g id="Group-31">
            <rect id="Rectangle" x="0" y="0" width="64" height="64"></rect>
            <g id="Group" transform="translate(12, 12)" fill-rule="nonzero">
                <path d="M35.7142857,40 L4.28571429,40 C1.91877964,40 0,38.0812204 0,35.7142857 L0,4.28571429 C0,1.91877964 1.91877964,0 4.28571429,0 L35.7142857,0 C38.0812204,0 40,1.91877964 40,4.28571429 L40,35.7142857 C40,38.0812204 38.0812204,40 35.7142857,40 Z M4.28571429,2.85714286 C3.49673607,2.85714286 2.85714286,3.49673607 2.85714286,4.28571429 L2.85714286,35.7142857 C2.85714286,36.5032639 3.49673607,37.1428571 4.28571429,37.1428571 L35.7142857,37.1428571 C36.5032639,37.1428571 37.1428571,36.5032639 37.1428571,35.7142857 L37.1428571,4.28571429 C37.1428571,3.49673607 36.5032639,2.85714286 35.7142857,2.85714286 L4.28571429,2.85714286 Z" id="Shape" fill="#171938"></path>
                <path d="M15.7142857,7.14285714 L10,7.14285714 C8.42204357,7.14285714 7.14285714,8.42204357 7.14285714,10 L7.14285714,22.8571429 C7.14285714,24.4350993 8.42204357,25.7142857 10,25.7142857 L15.7142857,25.7142857 C17.2922421,25.7142857 18.5714286,24.4350993 18.5714286,22.8571429 L18.5714286,10 C18.5714286,8.42204357 17.2922421,7.14285714 15.7142857,7.14285714 Z M10,22.8571429 L10,10 L15.7142857,10 L15.7142857,22.8571429 L10,22.8571429 Z" id="Shape" fill="#F5A900"></path>
                <path d="M30,7.14285714 L24.2857143,7.14285714 C22.7077579,7.14285714 21.4285714,8.42204357 21.4285714,10 L21.4285714,17.1428571 C21.4285714,18.7208136 22.7077579,20 24.2857143,20 L30,20 C31.5779564,20 32.8571429,18.7208136 32.8571429,17.1428571 L32.8571429,10 C32.8571429,8.42204357 31.5779564,7.14285714 30,7.14285714 Z M24.2857143,17.1428571 L24.2857143,10 L30,10 L30,17.1428571 L24.2857143,17.1428571 Z" id="Shape" fill="#F5A900"></path>
            </g>
        </g>
    </g>
</svg>