<?xml version="1.0" encoding="UTF-8"?>
<svg width="64px" height="64px" viewBox="0 0 64 64" version="1.1" xmlns="http://www.w3.org/2000/svg" xmlns:xlink="http://www.w3.org/1999/xlink">
    <title>ww3</title>
    <g id="ww3" stroke="none" stroke-width="1" fill="none" fill-rule="evenodd">
        <g id="Group-33">
            <rect id="Rectangle" x="0" y="0" width="64" height="64"></rect>
            <g id="Group" transform="translate(12, 14)">
                <path d="M1.39358514,20.6973843 L4.81275742,17.2087673 C5.88011808,16.1298136 6.33238954,15.4105111 6.33238954,14.673226 C6.34204993,14.2102039 6.14717242,13.7662136 5.79913845,13.4583176 C5.45110447,13.1504216 4.98484852,13.0095255 4.52330368,13.072778 C3.71251909,13.1014713 2.99875487,13.6123052 2.71421782,14.3675225 C2.28003721,15.0328773 1.90012918,15.2846331 1.32122171,15.2846331 C0.971428887,15.3049882 0.629134847,15.1782701 0.377953546,14.935433 C0.126772246,14.6925958 -0.0101661478,14.3560013 0.000589025496,14.0078713 C0.000589025496,12.2096151 2.08103777,10.4113589 4.7765757,10.4113589 C5.93848735,10.2860415 7.10082391,10.643787 7.98819086,11.3998341 C8.87555781,12.1558812 9.40899279,13.242953 9.46210809,14.4034876 C9.31753941,16.061738 8.4769314,17.5827473 7.14647818,18.5934245 L4.32430424,21.4166868 L4.32430424,21.5965124 L8.43092915,21.5965124 C9.35356294,21.5965124 9.93247041,22.0820416 9.93247041,22.8912568 C9.93247041,23.7004721 9.37165379,24.1680187 8.43092915,24.1680187 L1.68303888,24.1680187 C1.27858708,24.2200041 0.871287739,24.0955115 0.566097599,23.8266214 C0.260907458,23.5577313 0.0876760648,23.1707428 0.0910433186,22.7653789 C0.0910433186,22.1719544 0.416678774,21.5965124 1.39358514,20.6973843 Z" id="Path" fill="#000000" fill-rule="nonzero"></path>
                <path d="M17.2954499,21.8302857 L12.5375541,21.8302857 C12.0610364,21.8902783 11.5824563,21.7356627 11.2324786,21.408653 C10.8825008,21.0816433 10.6976768,20.616392 10.7284682,20.1399249 C10.7480461,19.5449731 10.9158817,18.9641544 11.2169214,18.449564 C12.2794914,16.3539689 13.4885107,14.3349754 14.8350931,12.4074232 C15.8119995,11.0047834 16.644179,10.5192542 17.8200848,10.5192542 C19.4120803,10.5192542 20.4070776,11.3464521 20.4070776,12.6951442 L20.4070776,19.2767619 L20.8412582,19.2767619 C21.1958582,19.2500975 21.5447174,19.3772679 21.797902,19.6254895 C22.0510867,19.873711 22.1838225,20.2186948 22.1618908,20.5715064 C22.1853626,20.9216551 22.0517421,21.2641783 21.796925,21.5070606 C21.542108,21.749943 21.1922213,21.8682815 20.8412582,21.8302857 L20.4070776,21.8302857 L20.4070776,22.639501 C20.4070776,23.1791632 20.1174373,23.6778317 19.6472615,23.9476629 C19.1770857,24.217494 18.5978052,24.217494 18.1276294,23.9476629 C17.6574535,23.6778317 17.3678133,23.1791632 17.3678133,22.639501 L17.2954499,21.8302857 Z M17.2954499,19.2767619 L17.2954499,13.1806734 L17.1326321,13.1806734 C16.2461801,14.5473481 14.2380948,18.0899128 13.6410964,19.2048316 L13.6410964,19.2048316 L17.2954499,19.2767619 Z" id="Shape" fill="#000000" fill-rule="nonzero"></path>
                <path d="M23.4644327,27.3329496 C23.0950977,27.3379766 22.7396643,27.1931114 22.4801932,26.9317999 C22.2207221,26.6704884 22.0796429,26.3153193 22.0895274,25.9482924 C22.0648179,25.7934112 22.0648179,25.6356269 22.0895274,25.4807458 L26.2142432,10.9328532 C26.4046666,10.2735667 27.0519783,9.85222382 27.7360553,9.94228765 C28.4201322,10.0323515 28.9347735,10.6066741 28.9459628,11.2925044 C28.9613247,11.4479792 28.9613247,11.6045762 28.9459628,11.760051 L24.8212471,26.3079436 C24.6681773,26.9245431 24.1030814,27.3514451 23.4644327,27.3329496 L23.4644327,27.3329496 Z" id="Path" fill="#000000" fill-rule="nonzero"></path>
                <path d="M32.25659,21.9201985 L36.6707595,13.360499 L36.6707595,13.360499 L31.4967739,13.360499 C30.5379584,13.360499 29.9590509,12.8749699 29.9590509,12.0837371 C29.9590509,11.2925044 30.5379584,10.7889927 31.4967739,10.7889927 L38.3532093,10.7889927 C38.7858638,10.7584122 39.2113893,10.9108831 39.5249078,11.2088263 C39.8384263,11.5067694 40.0107757,11.9224715 39.9994774,12.3534756 C39.9614923,13.1396993 39.7317746,13.9049554 39.3301157,14.5833132 L34.9159462,23.3947686 C34.6879552,23.9735301 34.1300952,24.3574289 33.5048592,24.3658269 C33.1040328,24.3912444 32.7109464,24.247838 32.4218273,23.9707134 C32.1327082,23.6935889 31.9742441,23.308327 31.9852271,22.9092394 C31.9821901,22.5609921 32.0761062,22.2186943 32.25659,21.9201985 L32.25659,21.9201985 Z" id="Path" fill="#000000" fill-rule="nonzero"></path>
                <path d="M33.8304947,29.5987524 C30.3931376,33.6573144 25.3282477,36 19.9909878,36 C14.6537279,36 9.58883797,33.6573144 6.15148096,29.5987524" id="Path" stroke="#F5A900" stroke-width="2.72113293" stroke-linecap="round" stroke-linejoin="round"></path>
                <path d="M6.15148096,6.40124756 C9.58883797,2.34268565 14.6537279,0 19.9909878,0 C25.3282477,0 30.3931376,2.34268565 33.8304947,6.40124756" id="Path" stroke="#F5A900" stroke-width="2.72113293" stroke-linecap="round" stroke-linejoin="round"></path>
            </g>
        </g>
    </g>
</svg>