<?xml version="1.0" encoding="UTF-8"?>
<svg width="64px" height="64px" viewBox="0 0 64 64" version="1.1" xmlns="http://www.w3.org/2000/svg" xmlns:xlink="http://www.w3.org/1999/xlink">
    <title>ww4</title>
    <g id="ww4" stroke="none" stroke-width="1" fill="none" fill-rule="evenodd">
        <g id="Group-31">
            <rect id="Rectangle" x="0" y="0" width="64" height="64"></rect>
            <g id="700965_agile_iteration_planning_project_scrum_icon" transform="translate(8.5, 12)" fill-rule="nonzero" stroke-width="0.7">
                <path d="M30.8066928,32.7234242 L28.4395257,32.7234242 C29.1181725,32.2754683 29.757072,31.756627 30.3439568,31.167885 C35.021369,26.4751778 35.021369,18.8402373 30.3439568,14.1475301 C28.6740833,12.472372 26.6288195,11.4066307 24.4785446,10.9271702 C23.6531766,10.7366659 22.8984704,10.324645 22.2953924,9.71965837 C20.5308126,7.94900194 20.5308126,5.06830097 22.2953924,3.2981368 C24.0604628,1.52748037 26.932076,1.52797263 28.6966558,3.2981368 C29.0867673,3.68948288 29.3919866,4.14088459 29.6132951,4.62920574 C29.2320163,4.563243 28.8320907,4.72716533 28.6142171,5.07666937 C28.3271539,5.53791627 28.4665145,6.14487189 28.9263063,6.43333579 L30.4828266,7.40948584 C30.4926408,7.41588521 30.503927,7.41736198 30.5142318,7.42326909 C30.5731166,7.45772724 30.6354363,7.48529376 30.7016816,7.50695316 C30.7213099,7.51335253 30.7399567,7.52073642 30.759585,7.52565901 C30.8341723,7.54485712 30.9112132,7.55814812 30.991689,7.55913264 C30.9936519,7.55913264 30.995124,7.55864038 30.9970868,7.55864038 C30.9990496,7.55864038 31.0005218,7.5596249 31.0024846,7.5596249 C31.0147522,7.5596249 31.0260385,7.55568682 31.0383061,7.55519457 C31.1025887,7.55273327 31.1649084,7.54534938 31.2247745,7.53205838 C31.2439121,7.52762805 31.2620682,7.52122868 31.280715,7.51532157 C31.3400905,7.4980925 31.396031,7.47643309 31.4500087,7.44886657 C31.4627671,7.4424672 31.4755254,7.43606783 31.4877931,7.42868394 C31.6296072,7.34844569 31.7483581,7.23621059 31.8342317,7.09887027 C31.8347224,7.09788575 31.8357038,7.09739349 31.8361945,7.09690123 L32.8092651,5.53545497 C33.0963283,5.07420808 32.9569677,4.46725246 32.4971759,4.17878855 C32.1968637,3.99025327 31.8352131,3.98828423 31.5393172,4.13645426 C31.2174139,3.31192006 30.7296519,2.55384085 30.0848638,1.90701223 C28.8590795,0.677348692 27.2299347,0 25.4962694,0 C23.7626041,0 22.1329686,0.676856433 20.907675,1.90701223 C18.5071399,4.31514436 18.388389,8.15378178 20.5430802,10.7086072 C17.9241808,10.9965788 15.3818316,12.1391125 13.3782778,14.1490069 C11.6804341,15.8517315 10.5586796,17.9689384 10.1003599,20.2727116 L9.32357185,19.2960693 C8.98596593,18.8712496 8.36865743,18.8013488 7.9441965,19.1405154 C7.52071698,19.479682 7.45103669,20.0989441 7.78913332,20.5242561 L10.0792595,23.4034803 C10.0890736,23.4157868 10.101832,23.4241552 10.1116461,23.4359694 C10.1415792,23.4699353 10.1734751,23.5019321 10.2078246,23.5319599 C10.2279435,23.5496813 10.2480625,23.5664181 10.2691629,23.5821704 C10.3049844,23.6082601 10.3427688,23.630904 10.3820253,23.6520712 C10.4036164,23.6633931 10.4237353,23.6766841 10.4458171,23.6865293 C10.4919435,23.7072042 10.5405234,23.7224642 10.5900848,23.7362475 C10.6067688,23.7406778 10.6224714,23.7928573 10.6396461,23.7963031 C10.7063821,23.8091019 10.775081,23.8627581 10.8457427,23.8627581 C10.8496684,23.8627581 10.853594,23.8627581 10.8575197,23.8627581 C10.9546795,23.8627581 11.0459509,23.7972877 11.134278,23.7697211 C11.1519435,23.7643063 11.1691182,23.7367398 11.1862929,23.7303404 C11.2785457,23.6958823 11.3634379,23.6377957 11.439988,23.5792168 C11.4453858,23.5747865 11.4522557,23.5678949 11.4581442,23.5634645 L14.3282852,21.2636294 C14.7522554,20.9244628 14.821445,20.3037239 14.4833484,19.8789042 C14.1457425,19.4540845 13.5279433,19.3831992 13.103973,19.7223658 L12.0494452,20.5656058 C12.4454452,18.6768072 13.3699358,16.9401167 14.7650138,15.5401314 C17.1974448,13.1004947 20.576939,12.17997 23.7262919,12.7731423 C23.8798829,12.8164611 24.0349461,12.8543651 24.1924628,12.8868542 C24.2042398,12.8893155 24.215526,12.888331 24.227303,12.8903 C25.9604776,13.3097049 27.605325,14.185434 28.9557487,15.5396392 C32.8681499,19.464422 32.8681499,25.8505009 28.9557487,29.7752837 C27.0876299,31.6493145 24.6041654,32.6958576 21.9626935,32.7229319 L13.631973,32.7229319 C13.0902333,32.7229319 12.6505604,33.1639962 12.6505604,33.7074503 C12.6505604,34.2509045 13.0902333,34.6919688 13.631973,34.6919688 L21.973489,34.6919688 C21.976924,34.6919688 21.9803589,34.6919688 21.9837939,34.6919688 L30.8066928,34.6919688 C31.3484325,34.6919688 31.7881053,34.2509045 31.7881053,33.7074503 C31.7881053,33.1639962 31.3484325,32.7234242 30.8066928,32.7234242 Z" id="Path" stroke="#000000" fill="#000000"></path>
                <path d="M5.78067251,39.0154816 C5.57555729,39.0154816 5.3728956,39.0051441 5.17317814,38.9844692 C4.63389194,38.9293362 4.24181762,38.4459376 4.29628602,37.9049447 C4.35124512,37.3639519 4.83066516,36.971129 5.37240489,37.0252775 C5.91021897,37.0799183 6.47551261,37.0238007 6.99713338,36.853479 C7.51286568,36.6861109 8.06638236,36.9681754 8.23420391,37.4850476 C8.40202546,38.0019198 8.11986935,38.5576805 7.60462775,38.7260331 C7.01676163,38.9180142 6.40288808,39.0154816 5.78067251,39.0154816 Z M1.81576577,36.9927884 C1.513,36.9927884 1.21465058,36.8529868 1.02229372,36.5891358 C0.531587441,35.9147407 0.194472227,35.1601073 0.0217436161,34.3464028 C-0.0911188282,33.8147629 0.246487092,33.2914913 0.77694058,33.1782717 C1.30837548,33.0665288 1.82852414,33.4037264 1.94138658,33.9358586 C2.05621185,34.4768515 2.28046462,34.9789559 2.607275,35.4278963 C2.92672479,35.8669916 2.83152777,36.4828078 2.39332707,36.8037609 C2.21912634,36.931256 2.01646464,36.9927884 1.81576577,36.9927884 Z M10.2647465,36.0944153 C10.1312744,36.0944153 9.99583946,36.0668488 9.86580229,36.0087622 C9.37067966,35.7877378 9.14838971,35.2053952 9.36871683,34.7087056 C9.5929696,34.2046322 9.70632275,33.6661006 9.70632275,33.1083709 C9.70632275,32.5649167 10.1459956,32.113515 10.6877353,32.113515 C11.229475,32.113515 11.6691479,32.5442418 11.6691479,33.087696 L11.6691479,33.1078786 C11.6691479,33.9437348 11.4983821,34.7515322 11.1617576,35.5096114 C10.9988431,35.8768367 10.6406275,36.0944153 10.2647465,36.0944153 Z M1.8025167,31.2092348 C1.60279925,31.2092348 1.40160967,31.1481946 1.22789965,31.0221763 C0.788717531,30.7036846 0.690576275,30.0878683 1.00855394,29.6472963 C1.49533457,28.9724089 2.10528248,28.4186172 2.82171365,28.0006892 C3.29033814,27.7274853 3.89145334,27.886485 4.16330462,28.3565926 C4.43613731,28.8267001 4.27714847,29.4292254 3.80852398,29.7024293 C3.33744595,29.9776022 2.91887349,30.3576263 2.59844229,30.8021364 C2.40657613,31.0679564 2.1067546,31.2092348 1.8025167,31.2092348 Z M9.05073916,30.4226045 C8.81765368,30.4226045 8.58407749,30.339905 8.39662769,30.1720446 C7.9829623,29.8008811 7.50697721,29.5266928 6.98192149,29.3578478 C6.46569848,29.1914642 6.18207025,28.6371803 6.34743827,28.1193236 C6.51280628,27.6014669 7.06632297,27.3164488 7.58205527,27.4828325 C8.37062026,27.7368382 9.0850886,28.1478747 9.70583204,28.7041276 C10.1096833,29.0664304 10.1445235,29.6891383 9.78287293,30.0942676 C9.58855324,30.3118462 9.32013691,30.4226045 9.05073916,30.4226045 Z" id="Shape" stroke="#000000" fill="#000000"></path>
                <path d="M39.3017999,35.7542642 C39.0505583,35.7542642 38.7993167,35.6582736 38.6079412,35.4658003 L37.3811755,34.2351522 C36.9979339,33.8506978 36.9979339,33.2274976 37.3811755,32.8430431 C37.7639264,32.4585887 38.386142,32.4585887 38.7688929,32.8430431 L39.3017999,33.3771444 L41.0614726,31.6123951 C41.4442235,31.2279406 42.0664391,31.2279406 42.44919,31.6123951 C42.8324316,31.9968495 42.8324316,32.6200497 42.44919,33.0045042 L39.9956586,35.4658003 C39.8042831,35.6577814 39.5530415,35.7542642 39.3017999,35.7542642 Z" id="Path" stroke="#F5A900" fill="#F5A900"></path>
                <path d="M40.1301121,40 C36.3418596,40 33.2602242,36.9086121 33.2602242,33.1083709 C33.2602242,29.3081297 36.3418596,26.2167417 40.1301121,26.2167417 C43.9183646,26.2167417 47,29.3081297 47,33.1083709 C47,36.9086121 43.9183646,40 40.1301121,40 Z M40.1301121,28.1857786 C37.4243577,28.1857786 35.2230493,30.3940535 35.2230493,33.1083709 C35.2230493,35.8226882 37.4243577,38.0309631 40.1301121,38.0309631 C42.8358665,38.0309631 45.0371749,35.8226882 45.0371749,33.1083709 C45.0371749,30.3940535 42.8358665,28.1857786 40.1301121,28.1857786 Z" id="Shape" stroke="#F5A900" fill="#F5A900"></path>
            </g>
        </g>
    </g>
</svg>