<?xml version="1.0" encoding="UTF-8"?>
<svg width="64px" height="64px" viewBox="0 0 64 64" version="1.1" xmlns="http://www.w3.org/2000/svg" xmlns:xlink="http://www.w3.org/1999/xlink">
    <title>ww5</title>
    <g id="ww5" stroke="none" stroke-width="1" fill="none" fill-rule="evenodd">
        <g id="Group-32">
            <rect id="Rectangle" x="0" y="0" width="64" height="64"></rect>
            <g id="3629574_collaboration_cooperation_problem-solution_team-strategy_teamwork_icon" transform="translate(5, 5)" fill-rule="nonzero" stroke-width="0.3">
                <path d="M26.0436216,14.7502023 C26.549379,14.7502023 26.8865507,14.4125724 26.8865507,13.9061277 L26.8865507,9.01049551 C26.8865507,8.5040508 26.549379,8.16642099 26.0436216,8.16642099 L21.3232187,8.16642099 C19.8059463,6.14064214 19.3844817,4.2836782 17.1085732,3.52401113 L7.16200988,0.0633055891 C6.65625242,-0.105509315 6.23478787,0.0633055891 6.06620205,0.569750302 C5.89761624,0.991787562 6.15049496,1.49823228 6.57195951,1.58263973 C16.2656441,5.21216017 17.1085732,4.79012291 18.0357952,6.22504959 L19.3001888,8.08201354 L10.2808475,8.08201354 C10.2808475,8.08201354 10.2808475,8.08201354 10.2808475,8.08201354 C10.2808475,8.08201354 10.2808475,8.08201354 10.2808475,8.08201354 C9.94367589,8.08201354 9.60650425,8.3352359 9.43791843,8.67286571 C8.93216097,10.2766073 14.6640788,11.8803489 13.3996852,13.9061277 C13.0625135,14.4969799 12.3038773,14.6657948 11.713827,14.328165 C11.6295341,14.2437575 10.5337263,13.7373128 10.6180192,13.7373128 C5.89761624,11.2894967 5.05468714,11.2894967 4.29605096,10.1921998 L1.51438495,5.80301233 C1.26150622,5.38097507 0.755748764,5.21216017 0.418577126,5.46538252 C-0.00288742092,5.71860488 -0.0871803303,6.30945705 0.0814054885,6.64708685 C2.61019277,10.4454222 2.8630715,11.711534 4.6332226,12.640016 L9.35362552,15.0878321 L9.35362552,24.7102816 C9.35362552,25.2167263 9.69079716,25.5543561 10.1965546,25.5543561 L14.3269072,25.5543561 C14.7483717,27.2425052 16.2656441,28.5930244 18.1200881,28.5930244 C19.9745321,28.5930244 21.4918045,27.3269126 21.913269,25.5543561 L26.0436216,25.5543561 C26.549379,25.5543561 26.8865507,25.2167263 26.8865507,24.7102816 L26.8865507,19.8146494 C26.8865507,19.3082047 26.549379,18.9705749 26.0436216,18.9705749 C24.8635208,18.9705749 23.8520059,17.9576854 23.8520059,16.7759811 C23.8520059,15.7630917 24.8635208,14.7502023 26.0436216,14.7502023 Z M25.2006925,20.6587239 L25.2006925,23.9506145 L21.1546328,23.9506145 C20.6488754,23.9506145 20.3117037,24.2882443 20.3117037,24.7946891 C20.3117037,25.9763934 19.3001888,26.9892828 18.1200881,26.9892828 C16.9399874,26.9892828 15.9284725,25.9763934 15.9284725,24.7946891 C15.9284725,24.2882443 15.5913008,23.9506145 15.0855434,23.9506145 L11.0394837,23.9506145 L11.0394837,16.016314 C14.1583214,17.4512407 16.8556945,13.2308681 14.0740284,11.0362744 L12.641049,9.85457004 L25.2006925,9.85457004 L25.2006925,13.1464607 C23.5148343,13.5684979 22.1661477,15.0878321 22.1661477,16.944796 C22.1661477,18.80176 23.4305414,20.3210941 25.2006925,20.6587239 Z" id="Shape" stroke="#000000" fill="#000000"></path>
                <path d="M27.8980656,39.2283634 C27.3923081,39.2283634 27.0551365,39.5659932 27.0551365,40.0724379 L27.0551365,44.9680701 C27.0551365,45.4745148 27.3923081,45.8121446 27.8980656,45.8121446 L32.6184685,45.8121446 C34.1357409,47.8379235 34.5572054,49.6948874 36.833114,50.4545545 C47.2854347,54.0840749 46.7796773,53.9998342 47.032556,53.9998342 C47.3697277,53.9998342 47.7068993,53.7464451 47.7911922,53.4088153 C47.959778,52.9867781 47.7068993,52.4803334 47.2854347,52.3115185 L37.3388714,48.7664055 C35.905892,48.2599608 35.6530132,47.0782564 34.6414983,45.7277372 C44.4194758,45.7277372 44.25089,45.9809595 44.5037687,45.136885 C44.6723546,44.5460329 44.25089,44.2928105 44.1665971,44.208403 L44.1665971,44.208403 C44.1665971,44.208403 44.1665971,44.208403 44.1665971,44.208403 L44.1665971,44.208403 C42.1435673,42.2670317 39.5304871,41.5073646 40.542002,39.903623 C41.3849311,38.5531038 42.9022035,39.903623 43.323668,39.9880304 C43.323668,39.9880304 43.323668,39.9880304 43.323668,39.9880304 C48.0440709,42.6046615 48.887,42.6046615 49.6456362,43.7019583 L52.4273022,48.0911458 C53.0173526,49.0196278 54.450332,48.1755533 53.8602817,47.1626639 C51.3314944,43.448736 51.0786157,42.0982167 49.3084646,41.1697348 L44.5037687,38.8063261 L44.5037687,29.1838766 C44.5037687,28.6774319 44.1665971,28.3398021 43.6608396,28.3398021 L39.5304871,28.3398021 C39.1090225,26.651653 37.5917502,25.3011338 35.7373062,25.3011338 C33.8828622,25.3011338 32.3655898,26.5672456 31.9441252,28.3398021 L27.8137727,28.3398021 C27.3080152,28.3398021 26.9708436,28.6774319 26.9708436,29.1838766 L26.9708436,34.0795088 C26.9708436,34.5859535 27.3080152,34.9235833 27.8137727,34.9235833 C28.9938734,34.9235833 30.0053883,35.9364727 30.0053883,37.1181771 C30.0896812,38.2154739 29.0781663,39.2283634 27.8980656,39.2283634 Z M28.7409947,33.3198417 L28.7409947,30.0279511 L32.7870543,30.0279511 C33.2928118,30.0279511 33.6299834,29.6903213 33.6299834,29.1838766 C33.6299834,28.0021722 34.6414983,26.9892828 35.8215991,26.9892828 C37.0016998,26.9892828 38.0132147,28.0021722 38.0132147,29.1838766 C38.0132147,29.6903213 38.3503863,30.0279511 38.8561438,30.0279511 L42.9022035,30.0279511 L42.9022035,37.9622516 C41.6378098,37.3713994 39.9519516,37.7934367 39.1090225,39.0595485 C37.3388714,41.9294018 40.9634665,43.7019583 41.3006382,44.1239956 L28.7409947,44.1239956 L28.7409947,40.832105 C30.4268529,40.4100677 31.7755394,38.8907336 31.7755394,37.0337696 C31.7755394,35.1768057 30.4268529,33.6574715 28.7409947,33.3198417 Z" id="Shape" stroke="#F5A900" fill="#F5A900"></path>
                <path d="M43.6608396,23.3597624 C44.1665971,23.3597624 44.5037687,23.0221326 44.5037687,22.5156879 L44.5037687,9.01049551 C44.5037687,8.5040508 44.1665971,8.16642099 43.6608396,8.16642099 L30.1739741,8.16642099 C29.6682167,8.16642099 29.331045,8.5040508 29.331045,9.01049551 L29.331045,22.5156879 C29.331045,23.0221326 29.6682167,23.3597624 30.1739741,23.3597624 L43.6608396,23.3597624 Z M31.0169032,9.85457004 L42.8179105,9.85457004 L42.8179105,21.6716133 L31.0169032,21.6716133 L31.0169032,9.85457004 Z" id="Shape" stroke="#000000" fill="#000000"></path>
                <path d="M10.2808475,30.6188033 C9.77509007,30.6188033 9.43791843,30.9564331 9.43791843,31.4628778 L9.43791843,44.9680701 C9.43791843,45.4745148 9.77509007,45.8121446 10.2808475,45.8121446 L23.767713,45.8121446 C24.2734705,45.8121446 24.6106421,45.4745148 24.6106421,44.9680701 L24.6106421,31.4628778 C24.6106421,30.9564331 24.2734705,30.6188033 23.767713,30.6188033 L10.2808475,30.6188033 Z M22.9247839,44.1239956 L11.1237766,44.1239956 L11.1237766,32.3069523 L22.9247839,32.3069523 L22.9247839,44.1239956 Z" id="Shape" stroke="#000000" fill="#000000"></path>
            </g>
        </g>
    </g>
</svg>