<svg width="50" height="50" viewBox="0 0 50 50" fill="none" xmlns="http://www.w3.org/2000/svg">
<rect width="50" height="50" fill="white"/>
<path d="M16.4869 8.73894C9.41363 12.4222 4.61598 18.3811 3.27874 25.1377C2.93857 26.8503 2.90338 30.0879 3.20836 31.7653C3.58373 33.8181 4.39311 35.8708 5.37844 37.2667C6.73915 39.2139 7.74794 40.1406 9.41363 40.9735C10.9386 41.7359 11.8887 41.9588 13.789 41.9471C15.701 41.9471 16.4752 41.7829 17.8476 41.0673C19.4899 40.211 20.6629 38.9207 21.6013 36.9148C22.2113 35.6245 22.4341 34.5923 22.4224 33.1612C22.3989 28.3518 18.7978 24.7389 13.7303 24.4574C12.3462 24.387 11.4899 24.5043 10.4342 24.9383L9.71861 25.2316L9.80072 24.6803C10.0588 22.909 10.8564 20.6333 11.7479 19.0732C13.2963 16.3753 15.9591 13.7712 19.091 11.9061C19.6893 11.5425 20.1702 11.214 20.1585 11.1788C20.0646 10.9677 18.0001 8.01167 17.9532 8.01167C17.918 8.01167 17.2611 8.34011 16.4869 8.73894Z" fill="#D5D5D5"/>
<path d="M41.5305 8.7155C33.6127 12.8914 28.5452 19.8357 28.0526 27.2023C27.7124 32.3401 29.1787 36.5981 32.3106 39.5307C35.5481 42.5571 41.3311 42.8503 44.3692 40.1406C45.554 39.0849 46.7857 37.0087 47.2197 35.343C48.2167 31.4838 46.3751 27.3782 42.8209 25.5483C40.4631 24.3284 37.5188 24.0938 35.4074 24.9501C35.032 25.0908 34.727 25.1964 34.727 25.1612C34.727 25.126 34.8326 24.5864 34.9616 23.953C35.9587 19.0615 38.9616 15.085 44.0291 11.9648C44.6508 11.5777 45.1669 11.2375 45.1669 11.2023C45.1669 11.1085 43.0085 7.99996 42.9499 7.99996C42.9147 7.99996 42.2695 8.3284 41.5305 8.7155Z" fill="#D5D5D5"/>
</svg>
